<?xml version="1.0" encoding="UTF-8"?>
<svg xmlns="http://www.w3.org/2000/svg" xmlns:xlink="http://www.w3.org/1999/xlink" width="823px" height="261px" viewBox="0 0 824 261" version="1.1">
<g id="surface1">
<path style=" stroke:none;fill-rule:nonzero;fill:rgb(100%,65.098041%,66.666669%);fill-opacity:1;" d="M 33.332031 163.128906 C 32.363281 164.085938 32.359375 165.636719 33.375 166.542969 C 39.992188 172.464844 48.117188 176.515625 56.902344 178.242188 C 66.496094 180.128906 76.4375 179.160156 85.472656 175.460938 C 94.507812 171.757812 102.230469 165.492188 107.664062 157.449219 C 113.097656 149.410156 116 139.957031 116 130.285156 C 116 120.613281 113.097656 111.160156 107.664062 103.117188 C 102.230469 95.078125 94.507812 88.8125 85.472656 85.109375 C 76.4375 81.410156 66.496094 80.441406 56.902344 82.328125 C 48.117188 84.054688 39.992188 88.105469 33.375 94.023438 C 32.359375 94.929688 32.363281 96.484375 33.332031 97.4375 C 34.296875 98.394531 35.859375 98.386719 36.875 97.488281 C 42.796875 92.25 50.042969 88.660156 57.867188 87.125 C 66.5 85.425781 75.449219 86.296875 83.582031 89.628906 C 91.714844 92.957031 98.664062 98.597656 103.554688 105.835938 C 108.445312 113.074219 111.054688 121.582031 111.054688 130.285156 C 111.054688 138.988281 108.445312 147.496094 103.554688 154.734375 C 98.664062 161.96875 91.714844 167.609375 83.582031 170.941406 C 75.449219 174.273438 66.5 175.144531 57.867188 173.445312 C 50.042969 171.90625 42.796875 168.320312 36.875 163.082031 C 35.859375 162.183594 34.296875 162.175781 33.332031 163.128906 Z M 33.332031 163.128906 "/>
<path style=" stroke:none;fill-rule:nonzero;fill:rgb(100%,65.098041%,66.666669%);fill-opacity:1;" d="M 0.917969 193.816406 C -0.00390625 194.722656 -0.00390625 196.199219 0.9375 197.089844 C 13.804688 209.191406 29.894531 217.445312 47.34375 220.878906 C 65.5625 224.464844 84.449219 222.621094 101.609375 215.59375 C 118.773438 208.566406 133.445312 196.660156 143.765625 181.386719 C 154.085938 166.113281 159.59375 148.15625 159.59375 129.789062 C 159.59375 111.417969 154.085938 93.464844 143.765625 78.191406 C 133.445312 62.917969 118.773438 51.011719 101.609375 43.984375 C 84.449219 36.953125 65.5625 35.113281 47.34375 38.699219 C 29.894531 42.128906 13.804688 50.386719 0.9375 62.488281 C -0.00390625 63.375 -0.00390625 64.851562 0.917969 65.761719 C 1.835938 66.671875 3.324219 66.667969 4.269531 65.785156 C 16.476562 54.332031 31.726562 46.519531 48.261719 43.265625 C 65.566406 39.863281 83.507812 41.609375 99.808594 48.285156 C 116.109375 54.964844 130.042969 66.269531 139.847656 80.777344 C 149.652344 95.285156 154.882812 112.339844 154.882812 129.789062 C 154.882812 147.234375 149.652344 164.292969 139.847656 178.800781 C 130.042969 193.304688 116.109375 204.613281 99.808594 211.292969 C 83.507812 217.96875 65.566406 219.714844 48.261719 216.3125 C 31.726562 213.058594 16.476562 205.242188 4.269531 193.792969 C 3.324219 192.90625 1.835938 192.902344 0.917969 193.816406 Z M 0.917969 193.816406 "/>
<path style=" stroke:none;fill-rule:nonzero;fill:rgb(100%,65.098041%,66.666669%);fill-opacity:1;" d="M 231.007812 163.09375 C 231.972656 164.046875 231.976562 165.597656 230.964844 166.503906 C 224.355469 172.417969 216.238281 176.460938 207.464844 178.183594 C 197.882812 180.070312 187.953125 179.101562 178.929688 175.40625 C 169.902344 171.710938 162.1875 165.449219 156.761719 157.417969 C 151.335938 149.386719 148.4375 139.945312 148.4375 130.285156 C 148.4375 120.625 151.335938 111.183594 156.761719 103.152344 C 162.1875 95.121094 169.902344 88.859375 178.929688 85.164062 C 187.953125 81.46875 197.882812 80.5 207.464844 82.386719 C 216.238281 84.109375 224.355469 88.15625 230.964844 94.070312 C 231.976562 94.972656 231.972656 96.523438 231.007812 97.476562 C 230.042969 98.429688 228.484375 98.425781 227.46875 97.527344 C 221.554688 92.292969 214.316406 88.710938 206.5 87.175781 C 197.878906 85.480469 188.941406 86.347656 180.820312 89.675781 C 172.695312 93.003906 165.753906 98.636719 160.871094 105.867188 C 155.984375 113.09375 153.378906 121.59375 153.378906 130.285156 C 153.378906 138.976562 155.984375 147.476562 160.871094 154.707031 C 165.753906 161.933594 172.695312 167.566406 180.820312 170.894531 C 188.941406 174.222656 197.878906 175.089844 206.5 173.394531 C 214.316406 171.859375 221.554688 168.277344 227.46875 163.042969 C 228.484375 162.144531 230.042969 162.140625 231.007812 163.09375 Z M 231.007812 163.09375 "/>
<path style=" stroke:none;fill-rule:nonzero;fill:rgb(100%,65.098041%,66.666669%);fill-opacity:1;" d="M 263.636719 193.824219 C 264.558594 194.738281 264.558594 196.21875 263.613281 197.109375 C 250.714844 209.25 234.585938 217.539062 217.09375 220.980469 C 198.828125 224.578125 179.894531 222.730469 162.6875 215.675781 C 145.480469 208.625 130.777344 196.679688 120.429688 181.355469 C 110.082031 166.03125 104.558594 148.015625 104.558594 129.582031 C 104.558594 111.152344 110.082031 93.136719 120.429688 77.8125 C 130.777344 62.488281 145.480469 50.542969 162.6875 43.488281 C 179.894531 36.4375 198.828125 34.589844 217.09375 38.1875 C 234.585938 41.628906 250.714844 49.917969 263.613281 62.058594 C 264.558594 62.949219 264.558594 64.429688 263.636719 65.34375 C 262.714844 66.253906 261.21875 66.253906 260.273438 65.363281 C 248.035156 53.875 232.746094 46.035156 216.171875 42.769531 C 198.820312 39.355469 180.835938 41.109375 164.496094 47.808594 C 148.152344 54.507812 134.183594 65.851562 124.355469 80.40625 C 114.527344 94.964844 109.28125 112.078125 109.28125 129.582031 C 109.28125 147.089844 114.527344 164.203125 124.355469 178.761719 C 134.183594 193.316406 148.152344 204.660156 164.496094 211.359375 C 180.835938 218.058594 198.820312 219.8125 216.171875 216.394531 C 232.746094 213.132812 248.035156 205.289062 260.273438 193.800781 C 261.21875 192.914062 262.714844 192.910156 263.636719 193.824219 Z M 263.636719 193.824219 "/>
<path style=" stroke:none;fill-rule:nonzero;fill:rgb(100%,65.098041%,66.666669%);fill-opacity:1;" d="M 165.125 228.53125 C 166.082031 229.476562 167.632812 229.480469 168.539062 228.492188 C 174.457031 222.023438 178.503906 214.078125 180.230469 205.492188 C 182.117188 196.117188 181.148438 186.402344 177.449219 177.570312 C 173.75 168.738281 167.484375 161.191406 159.449219 155.878906 C 151.410156 150.570312 141.960938 147.734375 132.292969 147.734375 C 122.625 147.734375 113.175781 150.570312 105.136719 155.878906 C 97.097656 161.191406 90.835938 168.738281 87.136719 177.570312 C 83.4375 186.402344 82.46875 196.117188 84.355469 205.492188 C 86.082031 214.078125 90.128906 222.023438 96.046875 228.492188 C 96.953125 229.480469 98.503906 229.476562 99.460938 228.53125 C 100.414062 227.585938 100.410156 226.0625 99.507812 225.070312 C 94.269531 219.28125 90.6875 212.199219 89.148438 204.550781 C 87.449219 196.113281 88.324219 187.367188 91.652344 179.417969 C 94.980469 171.472656 100.621094 164.679688 107.851562 159.898438 C 115.085938 155.121094 123.59375 152.570312 132.292969 152.570312 C 140.992188 152.570312 149.5 155.121094 156.730469 159.898438 C 163.96875 164.679688 169.605469 171.472656 172.933594 179.417969 C 176.261719 187.367188 177.136719 196.113281 175.4375 204.550781 C 173.898438 212.199219 170.316406 219.28125 165.078125 225.070312 C 164.175781 226.0625 164.171875 227.585938 165.125 228.53125 Z M 165.125 228.53125 "/>
<path style=" stroke:none;fill-rule:nonzero;fill:rgb(100%,65.098041%,66.666669%);fill-opacity:1;" d="M 196.929688 259.382812 C 197.847656 260.292969 199.339844 260.292969 200.234375 259.363281 C 212.476562 246.636719 220.828125 230.730469 224.296875 213.476562 C 227.921875 195.457031 226.0625 176.785156 218.953125 159.8125 C 211.84375 142.84375 199.804688 128.335938 184.359375 118.132812 C 168.914062 107.925781 150.753906 102.480469 132.175781 102.480469 C 113.601562 102.480469 95.441406 107.925781 79.992188 118.132812 C 64.546875 128.335938 52.507812 142.84375 45.398438 159.8125 C 38.289062 176.785156 36.429688 195.457031 40.054688 213.476562 C 43.523438 230.730469 51.875 246.636719 64.117188 259.363281 C 65.011719 260.292969 66.507812 260.292969 67.425781 259.382812 C 68.34375 258.472656 68.34375 257 67.449219 256.066406 C 55.867188 243.996094 47.964844 228.917969 44.675781 212.566406 C 41.230469 195.453125 43 177.714844 49.75 161.59375 C 56.503906 145.476562 67.9375 131.699219 82.609375 122.003906 C 97.28125 112.3125 114.53125 107.136719 132.175781 107.136719 C 149.820312 107.136719 167.070312 112.3125 181.742188 122.003906 C 196.414062 131.699219 207.847656 145.476562 214.601562 161.59375 C 221.351562 177.714844 223.121094 195.453125 219.679688 212.566406 C 216.390625 228.917969 208.484375 243.996094 196.90625 256.066406 C 196.007812 257 196.007812 258.472656 196.929688 259.382812 Z M 196.929688 259.382812 "/>
<path style=" stroke:none;fill-rule:nonzero;fill:rgb(100%,65.098041%,66.666669%);fill-opacity:1;" d="M 165.167969 32.054688 C 166.125 31.113281 167.675781 31.109375 168.585938 32.097656 C 174.511719 38.574219 178.5625 46.527344 180.292969 55.121094 C 182.179688 64.511719 181.210938 74.238281 177.507812 83.082031 C 173.800781 91.925781 167.53125 99.484375 159.480469 104.800781 C 151.433594 110.117188 141.972656 112.957031 132.292969 112.957031 C 122.613281 112.957031 113.152344 110.117188 105.101562 104.800781 C 97.054688 99.484375 90.78125 91.925781 87.078125 83.082031 C 83.375 74.238281 82.40625 64.511719 84.292969 55.121094 C 86.023438 46.527344 90.074219 38.574219 96 32.097656 C 96.90625 31.109375 98.460938 31.113281 99.417969 32.054688 C 100.371094 33 100.367188 34.527344 99.464844 35.523438 C 94.222656 41.320312 90.632812 48.410156 89.09375 56.066406 C 87.394531 64.515625 88.265625 73.273438 91.597656 81.230469 C 94.933594 89.1875 100.578125 95.992188 107.824219 100.777344 C 115.066406 105.5625 123.582031 108.117188 132.292969 108.117188 C 141.003906 108.117188 149.519531 105.5625 156.761719 100.777344 C 164.007812 95.992188 169.652344 89.1875 172.984375 81.230469 C 176.320312 73.273438 177.191406 64.515625 175.492188 56.066406 C 173.953125 48.410156 170.363281 41.320312 165.117188 35.523438 C 164.21875 34.527344 164.210938 33 165.167969 32.054688 Z M 165.167969 32.054688 "/>
<path style=" stroke:none;fill-rule:nonzero;fill:rgb(100%,65.098041%,66.666669%);fill-opacity:1;" d="M 196.660156 0.675781 C 197.574219 -0.226562 199.058594 -0.230469 199.953125 0.699219 C 212.132812 13.371094 220.441406 29.214844 223.894531 46.398438 C 227.5 64.34375 225.648438 82.941406 218.578125 99.84375 C 211.503906 116.746094 199.523438 131.195312 184.15625 141.355469 C 168.785156 151.523438 150.714844 156.945312 132.230469 156.945312 C 113.746094 156.945312 95.675781 151.523438 80.308594 141.355469 C 64.9375 131.195312 52.960938 116.746094 45.886719 99.84375 C 38.8125 82.941406 36.960938 64.34375 40.566406 46.398438 C 44.019531 29.214844 52.332031 13.371094 64.507812 0.699219 C 65.402344 -0.230469 66.886719 -0.226562 67.800781 0.675781 C 68.71875 1.582031 68.714844 3.050781 67.824219 3.980469 C 56.300781 16.003906 48.4375 31.019531 45.164062 47.304688 C 41.738281 64.347656 43.5 82.015625 50.21875 98.070312 C 56.9375 114.125 68.3125 127.847656 82.914062 137.5 C 97.511719 147.15625 114.675781 152.308594 132.230469 152.308594 C 149.789062 152.308594 166.953125 147.15625 181.550781 137.5 C 196.148438 127.847656 207.527344 114.125 214.246094 98.070312 C 220.964844 82.015625 222.722656 64.347656 219.296875 47.304688 C 216.027344 31.019531 208.160156 16.003906 196.636719 3.980469 C 195.746094 3.050781 195.742188 1.582031 196.660156 0.675781 Z M 196.660156 0.675781 "/>
<path style=" stroke:none;fill-rule:nonzero;fill:rgb(100%,65.098041%,66.666669%);fill-opacity:1;" d="M 132.230469 64.019531 L 198.539062 129.585938 L 132.230469 129.585938 Z M 132.230469 64.019531 "/>
<path style=" stroke:none;fill-rule:nonzero;fill:rgb(100%,65.098041%,66.666669%);fill-opacity:1;" d="M 132.230469 195.152344 L 198.539062 129.582031 L 132.230469 129.582031 Z M 132.230469 195.152344 "/>
<path style=" stroke:none;fill-rule:nonzero;fill:rgb(100%,65.098041%,66.666669%);fill-opacity:1;" d="M 132.230469 195.152344 L 65.921875 129.582031 L 132.230469 129.582031 Z M 132.230469 195.152344 "/>
<path style=" stroke:none;fill-rule:nonzero;fill:rgb(100%,65.098041%,66.666669%);fill-opacity:1;" d="M 132.230469 64.019531 L 65.921875 129.585938 L 132.230469 129.585938 Z M 132.230469 64.019531 "/>
<path style=" stroke:none;fill-rule:nonzero;fill:rgb(100%,65.098041%,66.666669%);fill-opacity:1;" d="M 281.785156 184.152344 L 281.785156 79.015625 L 327.5625 79.015625 C 339.386719 79.015625 348.53125 81.367188 355 86.074219 C 361.566406 90.777344 364.851562 97.4375 364.851562 106.050781 C 364.851562 111.757812 363.488281 116.5625 360.757812 120.46875 C 358.132812 124.375 354.496094 127.328125 349.84375 129.328125 C 345.296875 131.332031 340.292969 132.332031 334.839844 132.332031 L 337.414062 128.730469 C 344.1875 128.730469 349.996094 129.78125 354.847656 131.882812 C 359.800781 133.886719 363.640625 136.941406 366.367188 141.046875 C 369.097656 145.050781 370.460938 150.058594 370.460938 156.066406 C 370.460938 164.976562 367.125 171.886719 360.457031 176.792969 C 353.886719 181.699219 343.933594 184.152344 330.59375 184.152344 Z M 293 174.988281 L 330.441406 174.988281 C 339.738281 174.988281 346.863281 173.4375 351.816406 170.332031 C 356.769531 167.128906 359.242188 162.074219 359.242188 155.164062 C 359.242188 148.355469 356.769531 143.398438 351.816406 140.292969 C 346.863281 137.089844 339.738281 135.488281 330.441406 135.488281 L 291.789062 135.488281 L 291.789062 126.328125 L 326.804688 126.328125 C 335.292969 126.328125 341.859375 124.722656 346.507812 121.519531 C 351.261719 118.316406 353.636719 113.558594 353.636719 107.25 C 353.636719 100.84375 351.261719 96.085938 346.507812 92.980469 C 341.859375 89.777344 335.292969 88.175781 326.804688 88.175781 L 293 88.175781 Z M 504.71875 184.152344 L 504.71875 79.015625 L 544.429688 79.015625 C 553.425781 79.015625 561.15625 80.464844 567.625 83.371094 C 574.09375 86.171875 579.042969 90.277344 582.480469 95.6875 C 586.015625 100.992188 587.785156 107.449219 587.785156 115.0625 C 587.785156 122.46875 586.015625 128.878906 582.480469 134.285156 C 579.042969 139.59375 574.09375 143.699219 567.625 146.601562 C 561.15625 149.40625 553.425781 150.808594 544.429688 150.808594 L 510.933594 150.808594 L 515.933594 145.703125 L 515.933594 184.152344 Z M 577.171875 184.152344 L 549.890625 146 L 562.015625 146 L 589.453125 184.152344 Z M 515.933594 146.601562 L 510.933594 141.347656 L 544.128906 141.347656 C 554.738281 141.347656 562.773438 139.042969 568.230469 134.4375 C 573.789062 129.828125 576.566406 123.371094 576.566406 115.0625 C 576.566406 106.648438 573.789062 100.140625 568.230469 95.535156 C 562.773438 90.929688 554.738281 88.625 544.128906 88.625 L 510.933594 88.625 L 515.933594 83.371094 Z M 722.914062 184.152344 L 722.914062 79.015625 L 766.117188 79.015625 C 777.433594 79.015625 787.335938 81.265625 795.824219 85.773438 C 804.414062 90.179688 811.082031 96.335938 815.832031 104.246094 C 820.582031 112.15625 822.957031 121.269531 822.957031 131.582031 C 822.957031 141.898438 820.582031 151.007812 815.832031 158.917969 C 811.082031 166.828125 804.414062 173.039062 795.824219 177.542969 C 787.335938 181.949219 777.433594 184.152344 766.117188 184.152344 Z M 734.132812 174.539062 L 765.507812 174.539062 C 774.90625 174.539062 783.042969 172.738281 789.914062 169.132812 C 796.886719 165.425781 802.292969 160.371094 806.132812 153.960938 C 809.972656 147.453125 811.890625 139.992188 811.890625 131.582031 C 811.890625 123.070312 809.972656 115.613281 806.132812 109.203125 C 802.292969 102.792969 796.886719 97.789062 789.914062 94.183594 C 783.042969 90.480469 774.90625 88.625 765.507812 88.625 L 734.132812 88.625 Z M 734.132812 174.539062 "/>
<path style=" stroke:none;fill-rule:nonzero;fill:rgb(100%,65.098041%,66.666669%);fill-opacity:1;" d="M 379.085938 184.152344 L 427.59375 79.015625 L 438.65625 79.015625 L 487.164062 184.152344 L 475.339844 184.152344 L 430.773438 85.472656 L 435.324219 85.472656 L 390.757812 184.152344 Z M 398.1875 156.066406 L 401.519531 147.054688 L 463.214844 147.054688 L 466.550781 156.066406 Z M 597.28125 184.152344 L 645.789062 79.015625 L 656.855469 79.015625 L 705.359375 184.152344 L 693.539062 184.152344 L 648.972656 85.472656 L 653.519531 85.472656 L 608.953125 184.152344 Z M 616.382812 156.066406 L 619.714844 147.054688 L 681.410156 147.054688 L 684.746094 156.066406 Z M 616.382812 156.066406 "/>
</g>
</svg>
