<svg width="265" height="48" viewBox="0 0 265 48" fill="none" xmlns="http://www.w3.org/2000/svg">
<path d="M22.2245 47L12.6245 30.32H7.40445V47H0.564453V5.3H14.9645C18.1645 5.3 20.8645 5.86 23.0645 6.98C25.3045 8.1 26.9645 9.6 28.0445 11.48C29.1645 13.36 29.7245 15.46 29.7245 17.78C29.7245 20.5 28.9245 22.98 27.3245 25.22C25.7645 27.42 23.3445 28.92 20.0645 29.72L30.3845 47H22.2245ZM7.40445 24.86H14.9645C17.5245 24.86 19.4445 24.22 20.7245 22.94C22.0445 21.66 22.7045 19.94 22.7045 17.78C22.7045 15.62 22.0645 13.94 20.7845 12.74C19.5045 11.5 17.5645 10.88 14.9645 10.88H7.40445V24.86ZM68.7746 29.66C68.7746 30.9 68.6946 32.02 68.5346 33.02H43.2746C43.4746 35.66 44.4546 37.78 46.2146 39.38C47.9746 40.98 50.1346 41.78 52.6946 41.78C56.3746 41.78 58.9746 40.24 60.4946 37.16H67.8746C66.8746 40.2 65.0546 42.7 62.4146 44.66C59.8146 46.58 56.5746 47.54 52.6946 47.54C49.5346 47.54 46.6946 46.84 44.1746 45.44C41.6946 44 39.7346 42 38.2946 39.44C36.8946 36.84 36.1946 33.84 36.1946 30.44C36.1946 27.04 36.8746 24.06 38.2346 21.5C39.6346 18.9 41.5746 16.9 44.0546 15.5C46.5746 14.1 49.4546 13.4 52.6946 13.4C55.8146 13.4 58.5946 14.08 61.0346 15.44C63.4746 16.8 65.3746 18.72 66.7346 21.2C68.0946 23.64 68.7746 26.46 68.7746 29.66ZM61.6346 27.5C61.5946 24.98 60.6946 22.96 58.9346 21.44C57.1746 19.92 54.9946 19.16 52.3946 19.16C50.0346 19.16 48.0146 19.92 46.3346 21.44C44.6546 22.92 43.6546 24.94 43.3346 27.5H61.6346ZM87.5059 47.54C84.9059 47.54 82.5659 47.08 80.4859 46.16C78.4459 45.2 76.8259 43.92 75.6259 42.32C74.4259 40.68 73.7859 38.86 73.7059 36.86H80.7859C80.9059 38.26 81.5659 39.44 82.7659 40.4C84.0059 41.32 85.5459 41.78 87.3859 41.78C89.3059 41.78 90.7859 41.42 91.8259 40.7C92.9059 39.94 93.4459 38.98 93.4459 37.82C93.4459 36.58 92.8459 35.66 91.6459 35.06C90.4859 34.46 88.6259 33.8 86.0659 33.08C83.5859 32.4 81.5659 31.74 80.0059 31.1C78.4459 30.46 77.0859 29.48 75.9259 28.16C74.8059 26.84 74.2459 25.1 74.2459 22.94C74.2459 21.18 74.7659 19.58 75.8059 18.14C76.8459 16.66 78.3259 15.5 80.2459 14.66C82.2059 13.82 84.4459 13.4 86.9659 13.4C90.7259 13.4 93.7459 14.36 96.0259 16.28C98.3459 18.16 99.5859 20.74 99.7459 24.02H92.9059C92.7859 22.54 92.1859 21.36 91.1059 20.48C90.0259 19.6 88.5659 19.16 86.7259 19.16C84.9259 19.16 83.5459 19.5 82.5859 20.18C81.6259 20.86 81.1459 21.76 81.1459 22.88C81.1459 23.76 81.4659 24.5 82.1059 25.1C82.7459 25.7 83.5259 26.18 84.4459 26.54C85.3659 26.86 86.7259 27.28 88.5259 27.8C90.9259 28.44 92.8859 29.1 94.4059 29.78C95.9659 30.42 97.3059 31.38 98.4259 32.66C99.5459 33.94 100.126 35.64 100.166 37.76C100.166 39.64 99.6459 41.32 98.6059 42.8C97.5659 44.28 96.0859 45.44 94.1659 46.28C92.2859 47.12 90.0659 47.54 87.5059 47.54ZM111.037 9.56C109.797 9.56 108.757 9.14 107.917 8.3C107.077 7.46 106.657 6.42 106.657 5.18C106.657 3.94 107.077 2.9 107.917 2.06C108.757 1.22 109.797 0.799998 111.037 0.799998C112.237 0.799998 113.257 1.22 114.097 2.06C114.937 2.9 115.357 3.94 115.357 5.18C115.357 6.42 114.937 7.46 114.097 8.3C113.257 9.14 112.237 9.56 111.037 9.56ZM114.397 13.94V47H107.557V13.94H114.397Z" fill="#1F4097"/>
<path d="M150.317 5.3V10.88H139.217V47H132.377V10.88H121.217V5.3H150.317ZM174.344 13.4C176.864 13.4 179.104 13.94 181.064 15.02C183.064 16.1 184.624 17.7 185.744 19.82C186.904 21.94 187.484 24.5 187.484 27.5V47H180.704V28.52C180.704 25.56 179.964 23.3 178.484 21.74C177.004 20.14 174.984 19.34 172.424 19.34C169.864 19.34 167.824 20.14 166.304 21.74C164.824 23.3 164.084 25.56 164.084 28.52V47H157.244V2.6H164.084V17.78C165.244 16.38 166.704 15.3 168.464 14.54C170.264 13.78 172.224 13.4 174.344 13.4ZM210.549 47.54C207.429 47.54 204.609 46.84 202.089 45.44C199.569 44 197.589 42 196.149 39.44C194.709 36.84 193.989 33.84 193.989 30.44C193.989 27.08 194.729 24.1 196.209 21.5C197.689 18.9 199.709 16.9 202.269 15.5C204.829 14.1 207.689 13.4 210.849 13.4C214.009 13.4 216.869 14.1 219.429 15.5C221.989 16.9 224.009 18.9 225.489 21.5C226.969 24.1 227.709 27.08 227.709 30.44C227.709 33.8 226.949 36.78 225.429 39.38C223.909 41.98 221.829 44 219.189 45.44C216.589 46.84 213.709 47.54 210.549 47.54ZM210.549 41.6C212.309 41.6 213.949 41.18 215.469 40.34C217.029 39.5 218.289 38.24 219.249 36.56C220.209 34.88 220.689 32.84 220.689 30.44C220.689 28.04 220.229 26.02 219.309 24.38C218.389 22.7 217.169 21.44 215.649 20.6C214.129 19.76 212.489 19.34 210.729 19.34C208.969 19.34 207.329 19.76 205.809 20.6C204.329 21.44 203.149 22.7 202.269 24.38C201.389 26.02 200.949 28.04 200.949 30.44C200.949 34 201.849 36.76 203.649 38.72C205.489 40.64 207.789 41.6 210.549 41.6ZM251.151 13.4C253.751 13.4 256.071 13.94 258.111 15.02C260.191 16.1 261.811 17.7 262.971 19.82C264.131 21.94 264.711 24.5 264.711 27.5V47H257.931V28.52C257.931 25.56 257.191 23.3 255.711 21.74C254.231 20.14 252.211 19.34 249.651 19.34C247.091 19.34 245.051 20.14 243.531 21.74C242.051 23.3 241.311 25.56 241.311 28.52V47H234.471V13.94H241.311V17.72C242.431 16.36 243.851 15.3 245.571 14.54C247.331 13.78 249.191 13.4 251.151 13.4Z" fill="#F15F42"/>
</svg>
