<svg xmlns="http://www.w3.org/2000/svg" xmlns:xlink="http://www.w3.org/1999/xlink" viewBox="0 0 634.16 639.78"><defs><style>.cls-1{fill:url(#linear-gradient);}</style><linearGradient id="linear-gradient" x1="25.67" y1="30.5" x2="606.47" y2="611.29" gradientUnits="userSpaceOnUse"><stop offset="0" stop-color="#ffef26"/><stop offset="0.05" stop-color="#ffea21"/><stop offset="0.26" stop-color="#fed70f"/><stop offset="0.49" stop-color="#fdcc04"/><stop offset="0.73" stop-color="#fdc800"/><stop offset="1" stop-color="#f18f34"/></linearGradient></defs><g id="Layer_2" data-name="Layer 2"><g id="Layer_1-2" data-name="Layer 1"><path class="cls-1" d="M534.81,317.57a84.1,84.1,0,0,1,6.12,19.06l24.6,126.89,11,56.66h.1l0,.69.78,12.49c1.08,17.47-6.87,34.21-21.56,43.13-6.31,3.86-13.22,5.9-19.61,4.91l-11.92-1.86-58.62-9.09-142-22c-17.9-2.77-30.68-19.46-28.55-37.25l.21-1.78a31.3,31.3,0,0,1,36.27-27.21l119.06,18.47,40.58,6.3a13.47,13.47,0,0,0,15.34-16.28L498.58,453,480.47,350.27c-3.34-15.54-23.1-28.7-38.53-25.93a27.26,27.26,0,0,0-14.5,7.53,27.81,27.81,0,0,0-7.39,25.64l17.77,82.86a2.32,2.32,0,0,1-2.62,2.78l-96.63-15c-48.79-7.55-93.06,25.66-98.9,74.21-3.42,28.63,7.57,60.67,26.93,80,13.48,13.48,25.61,21.67,45.64,24.77l198.22,31.3c143.91,16.85,122.58-133,122.58-133l-29.95-163c-6.23-34-21.53-65.77-44.94-91.16-35.67-38.67-96.27-70.31-185.38-8.68C211.63,354,142.14,417.88,96.86,327a84,84,0,0,1-7.6-24L68.63,176.26l-11-56.65-.09,0,0-.69-.78-12.49C55.64,89,63.6,72.2,78.28,63.28c6.32-3.85,13.22-5.89,19.61-4.9l11.93,1.86,58.61,9.08,142,22c17.9,2.78,30.68,19.47,28.54,37.26l-.2,1.77a31.3,31.3,0,0,1-36.27,27.21L183.41,139.13l-40.58-6.3a13.46,13.46,0,0,0-15.33,16.28l8.08,37.69,18.11,102.72c3.33,15.54,23.09,28.7,38.52,25.92a27.26,27.26,0,0,0,14.51-7.53,27.79,27.79,0,0,0,7.38-25.63l-17.77-82.87a2.31,2.31,0,0,1,2.62-2.77l96.64,15c48.79,7.56,93.06-25.66,98.89-74.21,3.43-28.62-7.57-60.67-26.93-80C354.08,43.92,342,35.73,321.91,32.62L123.7,1.32c-143.92-16.85-122.58,133-122.58,133L36.32,326s2.61,30,33.91,63.9c32.71,35.43,109.8,65.69,193,.27C395.92,286,468.18,240,515.22,286.54a79.77,79.77,0,0,1,16.14,23.54Z"/></g></g></svg>