<?xml version="1.0" encoding="UTF-8"?>
<svg version="1.1" xmlns="http://www.w3.org/2000/svg" width="529" height="472">
<path d="M0 0 C9.09463811 7.16383869 17.10959983 15.92343571 25.28076172 24.09545898 C27.64922484 26.46170213 30.02562178 28.81979012 32.40234375 31.17773438 C33.90673728 32.67919943 35.41066134 34.18113505 36.9140625 35.68359375 C37.62640045 36.38874619 38.3387384 37.09389862 39.07266235 37.82041931 C39.721091 38.47192459 40.36951965 39.12342987 41.03759766 39.79467773 C41.61144196 40.36709702 42.18528625 40.9395163 42.77651978 41.52928162 C44 43 44 43 44 45 C44.556875 45.226875 45.11375 45.45375 45.6875 45.6875 C48.66159588 47.37550036 50.72008865 49.46676517 53 52 C53 52.66 53 53.32 53 54 C53.639375 54.268125 54.27875 54.53625 54.9375 54.8125 C57 56 57 56 58 59 C60.00016466 60.20882096 60.00016466 60.20882096 62 61 C62 61.66 62 62.32 62 63 C62.639375 63.268125 63.27875 63.53625 63.9375 63.8125 C66 65 66 65 67 68 C68.32326112 68.68644171 69.65790347 69.35115554 71 70 C72.5625 71.62109375 72.5625 71.62109375 74 73.4375 C76.1453137 76.06197006 78.25711391 77.99558324 81 80 C81 80.66 81 81.32 81 82 C81.60199219 82.26296875 82.20398438 82.5259375 82.82421875 82.796875 C85.1189858 84.06579466 86.21138351 85.20130916 87.8125 87.25 C89.91056896 89.82610999 92.00916496 91.89300366 94.625 93.9375 C99.16676924 97.76426787 101.54122328 101.76018499 102.37890625 107.67578125 C102.69461238 115.038863 100.87616729 120.56668684 96.11369514 126.25170326 C93.72765117 128.77738531 91.2854338 131.23215096 88.81274414 133.6730957 C87.88384872 134.60578781 86.95495331 135.53847992 85.99790955 136.49943542 C83.46563924 139.04134283 80.9211409 141.57066663 78.37388921 144.09754968 C75.70305128 146.75073361 73.04284997 149.41454455 70.38121033 152.07695007 C65.91335752 156.54293415 61.43785279 161.00112982 56.95727539 165.4543457 C51.78255589 170.59758054 46.61839831 175.75122819 41.4601317 180.9109605 C35.95719517 186.41524926 30.44666861 191.91189082 24.93388438 197.40631461 C23.34993971 198.98600392 21.76741437 200.56710329 20.18519783 202.14852333 C17.23498503 205.0963487 14.27633154 208.03555817 11.31665039 210.97387695 C10.44324005 211.84819366 9.56982971 212.72251038 8.66995239 213.62332153 C7.86110092 214.42364304 7.05224945 215.22396454 6.21888733 216.04853821 C5.52075456 216.74331929 4.82262178 217.43810038 4.10333347 218.15393543 C-1.39805822 222.98242526 -6.47766387 224.41370778 -13.64453125 224.26171875 C-21.35721896 223.40475345 -26.68521885 218.13587171 -31.84765625 212.7109375 C-35.65291632 207.9181054 -37.19025711 203.47604886 -36.85546875 197.359375 C-35.50504978 188.92872201 -30.8340032 183.52861437 -24.90209961 177.72265625 C-24.30161301 177.12669647 -23.7011264 176.53073669 -23.08244324 175.91671753 C-21.78603367 174.63121521 -20.48735171 173.34800128 -19.18662834 172.06686401 C-17.12622999 170.03677032 -15.07270239 167.99994988 -13.02088928 165.96118164 C-7.18869424 160.16862761 -1.34379367 154.38895395 4.50415039 148.61230469 C8.08770293 145.07151257 11.66387916 141.52340228 15.23583794 137.97091675 C16.59527123 136.62203189 17.95761034 135.27606888 19.32292366 133.93313599 C21.23265603 132.05466995 23.13294133 130.16709876 25.03149414 128.27734375 C25.59416992 127.72859589 26.1568457 127.17984802 26.73657227 126.61447144 C31.37244598 121.9675998 34.42055366 117.39780068 34.5 110.625 C34.5309375 109.75101562 34.561875 108.87703125 34.59375 107.9765625 C33.17153688 100.84678358 27.85402279 95.42011819 22.78857422 90.49560547 C22.18794159 89.89935364 21.58730896 89.30310181 20.96847534 88.68878174 C19.6759641 87.40760288 18.38000165 86.12989792 17.08089828 84.8554039 C15.0225195 82.83562269 12.97392934 80.8063486 10.92752075 78.77444458 C6.58506475 74.46611184 2.23091473 70.1697193 -2.125 65.875 C-7.1824102 60.88851536 -12.23483939 55.89718938 -17.27477646 50.8930397 C-19.28894391 48.89825423 -21.31195943 46.91275036 -23.33547974 44.92745972 C-24.57321775 43.70062225 -25.81053487 42.47335995 -27.04736328 41.24560547 C-27.60846802 40.69999969 -28.16957275 40.15439392 -28.74768066 39.59225464 C-33.49197188 34.84989825 -36.45242889 30.01032241 -37.0546875 23.13671875 C-36.82383354 14.11692471 -31.56196966 8.44904962 -25.421875 2.4609375 C-18.0195268 -4.20117588 -8.64008321 -4.87593848 0 0 Z " fill="#254A98" transform="translate(356,71)"/>
<path d="M0 0 C7.33471785 5.12324513 12.62911766 11.37218041 14.47265625 20.28515625 C14.9074149 26.60587816 12.54491039 31.8662864 9 37 C7.08828843 38.95096643 5.10657016 40.65232624 2.97265625 42.35546875 C1.06022882 43.94978944 -0.43185885 45.57293826 -2 47.5 C-4.72349381 50.81555768 -7.79307764 53.47629166 -11.05859375 56.24609375 C-13.46573422 58.42075385 -15.45172611 60.8196669 -17.5078125 63.3203125 C-19.04261047 65.04796466 -20.65377602 66.47088251 -22.4375 67.9375 C-25.07375903 70.11024096 -27.29000226 72.39447694 -29.5 75 C-31.69192291 77.58333772 -33.88247394 79.84988931 -36.5 82 C-39.84007825 84.74845004 -42.57740899 87.82742066 -45.37109375 91.12109375 C-47 93 -47 93 -49.6875 95.625 C-54.06945357 100.12538474 -56.82815668 104.13777663 -57.09361267 110.49015808 C-56.6466325 122.47410816 -46.691403 130.00749767 -38.71484375 137.73046875 C-37.29124983 139.13267827 -35.86928313 140.53654154 -34.4488678 141.94197083 C-30.72244461 145.62302175 -26.98008278 149.28736782 -23.23223877 152.94659424 C-17.22812294 158.8098576 -11.23931574 164.68840219 -5.26852608 170.58559608 C-3.18610914 172.63474282 -1.09123464 174.67051102 1.00489807 176.70561218 C2.28642572 177.96621061 3.56745329 179.22731769 4.84790039 180.48901367 C5.42927765 181.04658356 6.01065491 181.60415344 6.60964966 182.17861938 C11.13620649 186.67842829 14.3970339 191.68405726 14.5 198.3125 C14.21274362 205.64378228 10.49076362 211.75016363 5.5 216.9375 C0.38928815 221.6491107 -4.27766162 224.07423664 -11.25 224.3125 C-12.30960938 224.36857422 -12.30960938 224.36857422 -13.390625 224.42578125 C-22.19396231 222.98930855 -27.85043832 216.72740378 -33.85668945 210.67675781 C-34.81769358 209.72282296 -35.77953489 208.76973088 -36.74214172 207.81741333 C-39.33802392 205.24391833 -41.92115498 202.65797989 -44.50140786 200.06882572 C-46.66211393 197.90298914 -48.82902169 195.74341103 -50.99592656 193.5837791 C-56.10928622 188.48738358 -61.21234052 183.38083232 -66.30883789 178.26757812 C-71.55651348 173.00297176 -76.82037957 167.75497088 -82.09264213 162.51499677 C-86.63018525 158.00418676 -91.15791192 153.48368919 -95.67786759 148.95525622 C-98.37257949 146.25562759 -101.07069275 143.55965005 -103.77813148 140.87277985 C-106.3233278 138.346 -108.85597272 135.80726415 -111.37968254 133.25902939 C-112.74360884 131.88774643 -114.11980725 130.52870359 -115.49639893 129.1701355 C-120.87933787 123.70383913 -124.59062426 119.18790716 -125.21484375 111.27734375 C-125.12332031 110.50519531 -125.03179687 109.73304688 -124.9375 108.9375 C-124.86402344 108.16277344 -124.79054688 107.38804687 -124.71484375 106.58984375 C-122.46727427 98.44701006 -116.57848579 93.13921709 -110.76855469 87.34863281 C-109.82468706 86.39741481 -108.881441 85.44557972 -107.93876648 84.49317932 C-105.38992641 81.92222072 -102.83162435 79.36088551 -100.27075481 76.80191517 C-98.12857707 74.65985753 -95.9907663 72.5134666 -93.85281205 70.36719489 C-88.80717693 65.30236188 -83.75345044 60.2457028 -78.69482422 55.19384766 C-73.4862168 49.99188414 -68.29255335 44.77533067 -63.10583758 39.55154729 C-58.64162981 35.05660377 -54.16776964 30.57142635 -49.68622327 26.09376979 C-47.01427563 23.42388498 -44.34619892 20.75040509 -41.68758392 18.06723785 C-39.18698941 15.54431365 -36.67452139 13.03383775 -34.15262794 10.5322094 C-32.79562584 9.18021934 -31.4509107 7.81593129 -30.10667419 6.45124817 C-21.37372147 -2.16253342 -11.55423163 -6.34308095 0 0 Z " fill="#254998" transform="translate(201,71)"/>
<path d="M0 0 C13.86486486 11.55405405 13.86486486 11.55405405 15.875 20.3125 C16.33721747 25.6999596 14.72362044 30.28945844 11.42703629 34.51732445 C9.41486633 36.69858973 7.33522207 38.78343706 5.21142578 40.85620117 C4.41922638 41.64913071 3.62702698 42.44206024 2.81082153 43.25901794 C0.20066615 45.86570271 -2.42673075 48.45424201 -5.0546875 51.04296875 C-6.87797343 52.8569205 -8.70015205 54.67198587 -10.52127075 56.4881134 C-14.82327052 60.77300022 -19.13620662 65.04658194 -23.45472062 69.31481582 C-28.35260572 74.1568896 -33.2363822 79.01308664 -38.11896491 83.87058294 C-46.47084494 92.17908347 -54.83309125 100.47704154 -63.20739746 108.76293945 C-69.59587925 115.03696373 -69.59587925 115.03696373 -75.84375 121.44921875 C-80.37499145 126.2048849 -83.22461668 128.27973148 -89.9375 128.8125 C-96.92267694 128.61554952 -102.10031341 124.56042309 -106.76171875 119.640625 C-112.20513919 113.5695565 -115.2690896 109.58533646 -115.59375 101.29296875 C-113.84933948 93.08735346 -107.01573689 87.07515272 -101.29760742 81.37768555 C-100.43190628 80.50351486 -99.56620514 79.62934418 -98.67427063 78.72868347 C-96.31617234 76.35129908 -93.95156309 73.98082115 -91.58286452 71.61402488 C-89.59969695 69.63097764 -87.62090215 67.64359382 -85.64195424 65.65633708 C-80.97168746 60.96689454 -76.29335853 56.28560333 -71.61010742 51.60913086 C-66.79057702 46.79624829 -61.98601901 41.96877555 -57.1883747 37.1340844 C-53.05535734 32.97032342 -48.91268388 28.81634127 -44.76232225 24.66986877 C-42.28935902 22.19896692 -39.82026539 19.72449365 -37.3606472 17.24030113 C-34.61798244 14.47113769 -31.85531949 11.7224705 -29.09057617 8.9753418 C-28.28562714 8.15712952 -27.4806781 7.33891724 -26.65133667 6.49591064 C-18.84158299 -1.1988197 -10.48759746 -5.24379873 0 0 Z " fill="#FCB105" transform="translate(317,118.5)"/>
<path d="M0 0 C0 0.66 0 1.32 0 2 C-1.68066406 3.46459961 -1.68066406 3.46459961 -4.015625 5.15234375 C-4.85480469 5.76400391 -5.69398438 6.37566406 -6.55859375 7.00585938 C-7.44675781 7.64330078 -8.33492188 8.28074219 -9.25 8.9375 C-10.12269531 9.57107422 -10.99539063 10.20464844 -11.89453125 10.85742188 C-13.52808337 12.04330589 -15.16362948 13.22645129 -16.80175781 14.40600586 C-17.8898877 15.19503296 -17.8898877 15.19503296 -19 16 C-19.7331543 16.50088135 -20.46630859 17.0017627 -21.22167969 17.51782227 C-23.28284906 18.97140429 -23.28284906 18.97140429 -24 22 C-23.39526855 21.97905273 -22.79053711 21.95810547 -22.16748047 21.93652344 C-19.40349229 21.85291055 -16.63977087 21.80119946 -13.875 21.75 C-12.92367187 21.71648437 -11.97234375 21.68296875 -10.9921875 21.6484375 C-5.18608437 21.56779718 -1.43949766 21.82999261 3 26 C5 31 5 31 5 48 C-20.08 48 -45.16 48 -71 48 C-71 50.31 -71 52.62 -71 55 C-72.58751327 58.04172389 -74.90303675 60.45151837 -78 62 C-80.5132797 62.12393466 -82.98670114 62.18515112 -85.5 62.1875 C-86.18964844 62.19974609 -86.87929688 62.21199219 -87.58984375 62.22460938 C-89.39477494 62.22988695 -91.19917842 62.12184458 -93 62 C-93.66 61.34 -94.32 60.68 -95 60 C-94.44444444 55.44444444 -94.44444444 55.44444444 -93 54 C-90.81360547 53.92741054 -88.62499611 53.91626217 -86.4375 53.9375 C-84.64119141 53.95103516 -84.64119141 53.95103516 -82.80859375 53.96484375 C-81.88175781 53.97644531 -80.95492188 53.98804688 -80 54 C-79.505 51.03 -79.505 51.03 -79 48 C-79.59167969 47.97421875 -80.18335938 47.9484375 -80.79296875 47.921875 C-86.01460645 47.54707556 -89.30309802 47.03298398 -93 43 C-95.02397153 38.97343692 -95.29791174 35.54109464 -95.3125 31.0625 C-95.32925781 29.87785156 -95.34601563 28.69320313 -95.36328125 27.47265625 C-94.85189966 22.58428815 -93.59528184 19.37108007 -89.83203125 16.13671875 C-86.0863466 14.63327843 -82.64735884 14.67556313 -78.6875 14.8125 C-76.150625 14.874375 -73.61375 14.93625 -71 15 C-71 23.25 -71 31.5 -71 40 C-48.56 40 -26.12 40 -3 40 C-3.99 35.545 -3.99 35.545 -5 31 C-7.62723396 29.68638302 -9.72610561 29.78746091 -12.6640625 29.68359375 C-14.34628906 29.62075195 -14.34628906 29.62075195 -16.0625 29.55664062 C-17.238125 29.51732422 -18.41375 29.47800781 -19.625 29.4375 C-20.80835938 29.39431641 -21.99171875 29.35113281 -23.2109375 29.30664062 C-26.14050328 29.20032574 -29.07015588 29.09829358 -32 29 C-33.20725853 16.91064725 -33.20725853 16.91064725 -30.60546875 12.79296875 C-28.51129932 10.97176641 -26.32732811 9.51091619 -24 8 C-22.75089844 6.91525391 -22.75089844 6.91525391 -21.4765625 5.80859375 C-14.43318065 -0.12974139 -9.06976492 -1.03819249 0 0 Z M-85.25 23.375 C-87.93123074 27.39684611 -87.77948009 31.30752989 -87 36 C-85.4548843 38.71648577 -85.4548843 38.71648577 -83 40 C-81.68 40 -80.36 40 -79 40 C-79 34.06 -79 28.12 -79 22 C-82.87062509 21.65236666 -82.87062509 21.65236666 -85.25 23.375 Z " fill="#274994" transform="translate(436,316)"/>
<path d="M0 0 C1.134375 0.020625 2.26875 0.04125 3.4375 0.0625 C5.8754871 8.69340968 6.80273115 17.53342966 7.9375 26.41210938 C8.1025 27.63607422 8.2675 28.86003906 8.4375 30.12109375 C8.581875 31.23798584 8.72625 32.35487793 8.875 33.50561523 C9.060625 34.34938721 9.24625 35.19315918 9.4375 36.0625 C10.0975 36.3925 10.7575 36.7225 11.4375 37.0625 C11.87924222 34.93837781 12.3155181 32.81311914 12.75 30.6875 C12.88607666 30.02645264 13.02215332 29.36540527 13.16235352 28.68432617 C13.93154607 24.86673708 14.60650448 21.05374174 15.1640625 17.19921875 C15.28354248 16.39597168 15.40302246 15.59272461 15.52612305 14.76513672 C15.75500023 13.1971118 15.97047997 11.62706046 16.17114258 10.05517578 C16.67355375 6.66625952 17.22630687 4.34691865 19.28515625 1.57421875 C21.58613357 -0.04189418 22.66010648 -0.48089677 25.4375 -0.4375 C26.0975 -0.4478125 26.7575 -0.458125 27.4375 -0.46875 C30.388546 0.31512159 31.50914253 1.71044101 33.4375 4.0625 C34.31884766 7.22290039 34.31884766 7.22290039 34.8515625 10.91015625 C35.00242813 11.88981606 35.00242813 11.88981606 35.15634155 12.88926697 C35.47398486 14.96586358 35.76955977 17.0447871 36.0625 19.125 C36.36569189 21.20812077 36.67363837 23.29029488 36.99008179 25.3714447 C37.27528741 27.25660526 37.54549827 29.14401621 37.81494141 31.03149414 C38.27233767 34.22203724 38.27233767 34.22203724 40.4375 37.0625 C42.43580431 35.06419569 42.21516874 31.34054086 42.59375 28.59765625 C42.7009436 27.84914902 42.80813721 27.10064178 42.9185791 26.32945251 C43.26218034 23.92851228 43.600372 21.52685716 43.9375 19.125 C44.27486252 16.72675077 44.61346567 14.32871535 44.9564209 11.93125916 C45.17012979 10.43707378 45.38058883 8.94241937 45.58752441 7.44728088 C46.32491229 2.28767542 46.32491229 2.28767542 47.4375 0.0625 C49.7475 0.0625 52.0575 0.0625 54.4375 0.0625 C55.68885466 3.81656399 55.09164139 6.80014793 54.51171875 10.6171875 C54.40406693 11.35574982 54.2964151 12.09431213 54.1855011 12.85525513 C53.95596339 14.41752162 53.72289712 15.97927314 53.48657227 17.54052734 C53.12760938 19.92020163 52.78272859 22.30161192 52.43945312 24.68359375 C52.2143867 26.20325039 51.98850171 27.72278607 51.76171875 29.2421875 C51.65953537 29.95067841 51.55735199 30.65916931 51.45207214 31.38912964 C50.73706718 36.03646996 50.00032026 40.24962849 46.875 43.875 C43.10768877 45.71035675 39.54395616 45.72800302 35.4375 45.0625 C31.26756805 42.3894667 30.47935915 38.66618784 29.4375 34.0625 C28.64397911 29.59563413 27.97360083 25.1131401 27.3125 20.625 C27.13074219 19.41650391 26.94898438 18.20800781 26.76171875 16.96289062 C26.31620142 13.99668315 25.87492317 11.02991003 25.4375 8.0625 C25.23386841 9.43184692 25.23386841 9.43184692 25.02612305 10.82885742 C24.5148076 14.2314962 23.99372897 17.63234428 23.46606445 21.0324707 C23.24015648 22.50127679 23.01809864 23.97068063 22.80004883 25.44067383 C22.48501217 27.55981562 22.1559566 29.67638516 21.82421875 31.79296875 C21.63045654 33.06551514 21.43669434 34.33806152 21.23706055 35.64916992 C20.44367596 39.03613477 19.47833419 41.26570533 17.4375 44.0625 C15.15202852 45.20523574 13.66870095 45.29377257 11.125 45.375 C9.98611328 45.43107422 9.98611328 45.43107422 8.82421875 45.48828125 C5.40717812 44.87869462 3.84615096 43.53228424 1.4375 41.0625 C0.3984375 38.26953125 0.3984375 38.26953125 -0.1875 34.875 C-0.35233887 33.94083252 -0.35233887 33.94083252 -0.52050781 32.98779297 C-2.01325607 24.07545516 -3.05777206 15.07464366 -4.109375 6.1015625 C-4.22120117 5.15490723 -4.33302734 4.20825195 -4.44824219 3.23291016 C-4.48594727 2.5166748 -4.52365234 1.80043945 -4.5625 1.0625 C-3.5625 0.0625 -3.5625 0.0625 0 0 Z " fill="#305198" transform="translate(166.5625,329.9375)"/>
<path d="M0 0 C0.7528125 0.03222656 1.505625 0.06445312 2.28125 0.09765625 C5.59030788 1.35020457 6.88622439 3.93765123 8.5 6.9375 C9.54950709 9.60174536 10.3240408 12.313569 11.078125 15.07421875 C11.40257599 16.21610405 11.40257599 16.21610405 11.73358154 17.38105774 C12.18544671 18.97895524 12.63225509 20.57829063 13.07421875 22.17895508 C13.751685 24.631099 14.44477688 27.07840642 15.140625 29.52539062 C15.5790378 31.08307671 16.01656908 32.64101124 16.453125 34.19921875 C16.65931458 34.93049484 16.86550415 35.66177094 17.07794189 36.41520691 C17.88493619 39.34996632 18.5 41.87813773 18.5 44.9375 C15.86 44.9375 13.22 44.9375 10.5 44.9375 C9.99166409 43.69086669 9.49368855 42.44000613 9 41.1875 C8.7215625 40.49140625 8.443125 39.7953125 8.15625 39.078125 C7.5 36.9375 7.5 36.9375 7.5 32.9375 C1.56 33.2675 -4.38 33.5975 -10.5 33.9375 C-10.974375 35.566875 -11.44875 37.19625 -11.9375 38.875 C-13.375 43.8125 -13.375 43.8125 -14.5 44.9375 C-17.17058851 45.07865161 -19.82432238 44.97997107 -22.5 44.9375 C-21.03094005 36.71362145 -18.8998387 28.72131697 -16.625 20.6875 C-16.28597656 19.44742187 -15.94695312 18.20734375 -15.59765625 16.9296875 C-12.24695139 5.08118742 -12.24695139 5.08118742 -8.5 0.9375 C-5.70503523 -0.31025213 -3.03243168 -0.20250828 0 0 Z M-3.5 7.9375 C-6.16557258 13.98772986 -8.01030705 19.32664524 -8.5 25.9375 C-4.21 25.9375 0.08 25.9375 4.5 25.9375 C4.04082013 21.71304521 3.27433638 17.67357673 2.1875 13.5625 C1.96449219 12.70914062 1.74148437 11.85578125 1.51171875 10.9765625 C0.68868688 8.73494065 0.68868688 8.73494065 -1.60546875 8.1484375 C-2.54326172 8.04402344 -2.54326172 8.04402344 -3.5 7.9375 Z " fill="#2B4C95" transform="translate(98.5,329.0625)"/>
<path d="M0 0 C0.7528125 0.05285156 1.505625 0.10570312 2.28125 0.16015625 C5.69926606 1.3576654 6.59654799 2.82763475 8.5 5.9375 C9.91348779 9.77341342 10.99305344 13.68126563 12.0625 17.625 C12.64684611 19.7123206 13.23147866 21.79956103 13.81640625 23.88671875 C14.09500488 24.90169434 14.37360352 25.91666992 14.66064453 26.96240234 C15.67774799 30.56752821 16.80373326 34.1333551 17.96459961 37.69458008 C18.55679574 40.1754309 18.59211865 42.39597731 18.5 44.9375 C15.86 44.9375 13.22 44.9375 10.5 44.9375 C9.51 40.9775 8.52 37.0175 7.5 32.9375 C1.56 32.9375 -4.38 32.9375 -10.5 32.9375 C-11.49 36.8975 -12.48 40.8575 -13.5 44.9375 C-16.14 44.9375 -18.78 44.9375 -21.5 44.9375 C-20.89721303 37.8300118 -19.12250628 31.13796515 -17.22631836 24.2734375 C-16.68762303 22.31294774 -16.16676387 20.34825837 -15.64648438 18.3828125 C-15.30294922 17.12984375 -14.95941406 15.876875 -14.60546875 14.5859375 C-14.29762451 13.45333496 -13.98978027 12.32073242 -13.67260742 11.15380859 C-12.1434544 6.95954212 -10.25004297 3.16322454 -6.53125 0.55859375 C-4.17930985 -0.16055718 -2.44729002 -0.23048108 0 0 Z M-3.5 7.9375 C-4.33679277 10.56144306 -5.16956942 13.18654384 -6 15.8125 C-6.23847656 16.55886719 -6.47695312 17.30523437 -6.72265625 18.07421875 C-8.02770415 21.92992067 -8.02770415 21.92992067 -8.5 25.9375 C-3.88 25.9375 0.74 25.9375 5.5 25.9375 C4.85702496 23.31176939 4.21075589 20.68692697 3.5625 18.0625 C3.38009766 17.31613281 3.19769531 16.56976563 3.00976562 15.80078125 C2.04790308 11.76710875 2.04790308 11.76710875 0.5 7.9375 C-0.82 7.9375 -2.14 7.9375 -3.5 7.9375 Z " fill="#325298" transform="translate(247.5,329.0625)"/>
<path d="M0 0 C0 1.98 0 3.96 0 6 C-3.01031744 6.93423645 -3.86650268 7.04449911 -7 6 C-13.62967683 5.29553629 -13.62967683 5.29553629 -19.5625 7.75 C-22.17110707 11.83303715 -22.1598483 15.65375645 -22.1875 20.4375 C-22.20876953 22.10619141 -22.20876953 22.10619141 -22.23046875 23.80859375 C-21.91894204 28.12244662 -21.07280372 30.92719628 -18 34 C-12.81233236 35.1888405 -8.29567911 34.85501475 -3.0390625 34.15625 C-2.36617187 34.1046875 -1.69328125 34.053125 -1 34 C0 35 0 35 0.375 37.375 C0 40 0 40 -2.09375 41.640625 C-7.88710437 44.35041979 -15.15054805 43.83318675 -21.328125 42.49609375 C-25.35935269 40.96247452 -27.68517394 38.56127086 -30 35 C-31.56198071 30.31405788 -31.22577748 25.59558823 -31.25 20.6875 C-31.270625 19.65431641 -31.29125 18.62113281 -31.3125 17.55664062 C-31.34777393 10.68263383 -30.51297125 6.35062833 -26.3125 0.75 C-18.37428806 -5.25729552 -8.4601505 -3.62577879 0 0 Z " fill="#2B4C95" transform="translate(155,332)"/>
<path d="M0 0 C7.35421938 -0.33093987 13.37761553 -0.4294491 20 3 C25.38630422 8.52441459 25.2083527 13.52942885 25.25 20.8125 C25.270625 21.70259766 25.29125 22.59269531 25.3125 23.50976562 C25.3437404 28.77767825 24.96658699 32.45453735 22 37 C16.89189635 41.84614961 13.12775969 42.1312776 6.25 42.0625 C5.07953125 42.05347656 3.9090625 42.04445313 2.703125 42.03515625 C1.81109375 42.02355469 0.9190625 42.01195312 0 42 C0 39.69 0 37.38 0 35 C0.91523438 34.86722656 1.83046875 34.73445313 2.7734375 34.59765625 C3.96195312 34.42105469 5.15046875 34.24445313 6.375 34.0625 C7.55835938 33.88847656 8.74171875 33.71445312 9.9609375 33.53515625 C12.90702381 33.16537214 12.90702381 33.16537214 15 32 C16.22397713 28.32806862 16.26111238 24.88916441 16.3125 21.0625 C16.35600586 19.98838867 16.35600586 19.98838867 16.40039062 18.89257812 C16.44168112 15.46546721 16.27160169 13.39272981 14.30078125 10.54296875 C11.65642448 8.76958857 10.03404683 8.41973983 6.875 8.25 C6.00617188 8.19328125 5.13734375 8.1365625 4.2421875 8.078125 C2.82874296 8.02887606 1.41430227 8 0 8 C0 5.36 0 2.72 0 0 Z " fill="#F7AF14" transform="translate(287,331)"/>
<path d="M0 0 C0.78375 0.474375 1.5675 0.94875 2.375 1.4375 C3.88948678 2.33898023 5.4235897 3.21179485 7 4 C7.35872093 6.74716664 7.44405709 9.4709277 7.55859375 12.23828125 C8.0486687 15.30450237 8.95888896 16.70851267 11 19 C9.625 20.5 9.625 20.5 8 22 C7.34 22 6.68 22 6 22 C9.65079826 23.61064629 13.0507432 24.44894091 17 25 C17 25.66 17 26.32 17 27 C17.66 27 18.32 27 19 27 C19.103125 26.21625 19.20625 25.4325 19.3125 24.625 C20 22 20 22 23 20 C23.66 21.32 24.32 22.64 25 24 C24.01 24.33 23.02 24.66 22 25 C47.08 25.33 72.16 25.66 98 26 C98 20.72 98 15.44 98 10 C98.33 10 98.66 10 99 10 C99 15.61 99 21.22 99 27 C73.92 27 48.84 27 23 27 C23 29.31 23 31.62 23 34 C21.41248673 37.04172389 19.09696325 39.45151837 16 41 C13.4867203 41.12393466 11.01329886 41.18515112 8.5 41.1875 C7.81035156 41.19974609 7.12070312 41.21199219 6.41015625 41.22460938 C4.60522506 41.22988695 2.80082158 41.12184458 1 41 C0.34 40.34 -0.32 39.68 -1 39 C-0.44444444 34.44444444 -0.44444444 34.44444444 1 33 C3.18639453 32.92741054 5.37500389 32.91626217 7.5625 32.9375 C9.35880859 32.95103516 9.35880859 32.95103516 11.19140625 32.96484375 C12.11824219 32.97644531 13.04507812 32.98804688 14 33 C14.33 31.02 14.66 29.04 15 27 C14.11248047 26.96132813 14.11248047 26.96132813 13.20703125 26.921875 C7.98539355 26.54707556 4.69690198 26.03298398 1 22 C-1.08715125 17.89867481 -1.24081322 14.44055014 -1.1875 9.875 C-1.18105469 8.65554688 -1.17460937 7.43609375 -1.16796875 6.1796875 C-1 3 -1 3 0 0 Z " fill="#4E68A5" transform="translate(342,337)"/>
<path d="M0 0 C2.64 0 5.28 0 8 0 C8 18.48 8 36.96 8 56 C5.36 56 2.72 56 0 56 C0 37.52 0 19.04 0 0 Z " fill="#2F4F95" transform="translate(324,321)"/>
<path d="M0 0 C0 14.52 0 29.04 0 44 C-6 44 -6 44 -7.84790039 43.01538086 C-9.69938436 39.77655903 -9.44724233 36.38637099 -9.43359375 32.75390625 C-9.4388356 31.94638412 -9.44407745 31.138862 -9.44947815 30.30686951 C-9.45589886 28.59969227 -9.45456068 26.8924708 -9.44604492 25.18530273 C-9.43754139 22.57520575 -9.46628213 19.9673022 -9.49804688 17.35742188 C-9.49965918 15.69791732 -9.49908079 14.0384089 -9.49609375 12.37890625 C-9.50732773 11.59963272 -9.51856171 10.82035919 -9.53013611 10.01747131 C-9.48551903 6.54176988 -9.25915061 4.38057109 -7.28149414 1.47631836 C-5 0 -5 0 0 0 Z " fill="#274890" transform="translate(285,330)"/>
<path d="M0 0 C2.64 0 5.28 0 8 0 C8 14.19 8 28.38 8 43 C5.36 43 2.72 43 0 43 C0 28.81 0 14.62 0 0 Z " fill="#1F4797" transform="translate(447,331)"/>
<path d="M0 0 C8.25 0.33 16.5 0.66 25 1 C25 1.66 25 2.32 25 3 C26.32 3.33 27.64 3.66 29 4 C29 5.65 29 7.3 29 9 C28.43829102 8.83701416 27.87658203 8.67402832 27.29785156 8.50610352 C24.86446819 7.97014902 22.72377772 7.88638604 20.234375 7.90234375 C18.90019531 7.90717773 18.90019531 7.90717773 17.5390625 7.91210938 C16.61867187 7.92048828 15.69828125 7.92886719 14.75 7.9375 C13.34621094 7.94426758 13.34621094 7.94426758 11.9140625 7.95117188 C9.60934753 7.96293062 7.30466554 7.98086532 5 8 C4.01 11.96 3.02 15.92 2 20 C-0.64 20 -3.28 20 -6 20 C-4.73076923 7.73076923 -4.73076923 7.73076923 -1 4 C-0.67 2.68 -0.34 1.36 0 0 Z " fill="#244897" transform="translate(232,354)"/>
<path d="M0 0 C0 0.66 0 1.32 0 2 C-1.66479492 3.46459961 -1.66479492 3.46459961 -3.98046875 5.15234375 C-5.2324707 6.06983398 -5.2324707 6.06983398 -6.50976562 7.00585938 C-7.83524414 7.96202148 -7.83524414 7.96202148 -9.1875 8.9375 C-10.48397461 9.88786133 -10.48397461 9.88786133 -11.80664062 10.85742188 C-14.19058501 12.59468709 -16.57150267 14.32551916 -19 16 C-19.81766846 16.60400635 -20.63533691 17.2080127 -21.4777832 17.83032227 C-22.72628052 18.40931274 -22.72628052 18.40931274 -24 19 C-26.475 18.01 -26.475 18.01 -29 17 C-29.33 20.96 -29.66 24.92 -30 29 C-30.66 29 -31.32 29 -32 29 C-33.20725853 16.91064725 -33.20725853 16.91064725 -30.60546875 12.79296875 C-28.51129932 10.97176641 -26.32732811 9.51091619 -24 8 C-23.16726563 7.27683594 -22.33453125 6.55367188 -21.4765625 5.80859375 C-14.43318065 -0.12974139 -9.06976492 -1.03819249 0 0 Z " fill="#2A4A94" transform="translate(436,316)"/>
<path d="M0 0 C1.32 0 2.64 0 4 0 C4 7.26 4 14.52 4 22 C-6 23 -6 23 -10 21 C-11.61380626 17.77238749 -11.58601965 14.48948063 -11 11 C-8.875 7.9375 -8.875 7.9375 -6 6 C-2.6875 6.1875 -2.6875 6.1875 0 7 C0 4.69 0 2.38 0 0 Z M-5 10 C-7.2491908 11.82703227 -7.2491908 11.82703227 -7.25 14.5 C-7.2491908 17.17296773 -7.2491908 17.17296773 -5 19 C-2.21762345 18.59471099 -2.21762345 18.59471099 0 17 C0.04080783 15.00041636 0.04254356 12.99954746 0 11 C-2.39719432 10.32041397 -2.39719432 10.32041397 -5 10 Z " fill="#E9B534" transform="translate(425,383)"/>
<path d="M0 0 C1.32 0 2.64 0 4 0 C4 7.26 4 14.52 4 22 C-5 23 -5 23 -8 22.0625 C-10.53945002 19.44369217 -10.9137932 17.58782163 -11.125 14.00390625 C-10.92725657 10.8338319 -10.20980495 9.27886135 -8 7 C-4.3125 6.1875 -4.3125 6.1875 -1 6 C-0.67 4.02 -0.34 2.04 0 0 Z M-5 10 C-6.41577477 11.18424326 -6.41577477 11.18424326 -6.0625 14.5625 C-6.041875 15.696875 -6.02125 16.83125 -6 18 C-4.34385343 18.38218767 -2.67542976 18.71395102 -1 19 C0.41577477 17.81575674 0.41577477 17.81575674 0.0625 14.4375 C0.041875 13.303125 0.02125 12.16875 0 11 C-1.65614657 10.61781233 -3.32457024 10.28604898 -5 10 Z " fill="#EDAE2D" transform="translate(113,383)"/>
<path d="M0 0 C0.78375 0.474375 1.5675 0.94875 2.375 1.4375 C3.88948678 2.33898023 5.4235897 3.21179485 7 4 C7.35872093 6.74716664 7.44405709 9.4709277 7.55859375 12.23828125 C8.0486687 15.30450237 8.95888896 16.70851267 11 19 C9.625 20.5 9.625 20.5 8 22 C7.34 22 6.68 22 6 22 C10.455 23.98 10.455 23.98 15 26 C10.34385708 27.16403573 8.41964414 26.73628877 4 25 C-0.65051646 20.22710153 -1.13853977 16.49908905 -1.125 10 C-1.12886719 8.14375 -1.12886719 8.14375 -1.1328125 6.25 C-1 3 -1 3 0 0 Z " fill="#335296" transform="translate(342,337)"/>
<path d="M0 0 C2 2 2 2 2.125 5.625 C2.08375 6.73875 2.0425 7.8525 2 9 C-1.3 9 -4.6 9 -8 9 C-7.67 9.66 -7.34 10.32 -7 11 C-4.36 11 -1.72 11 1 11 C1 12.32 1 13.64 1 15 C-3.09882925 15.90174243 -5.41244928 16.22849195 -9.375 14.6875 C-12 13 -12 13 -13 11 C-13.45723173 4.8273717 -13.45723173 4.8273717 -11.6875 1.625 C-8.06664447 -1.86174977 -4.59103024 -0.91820605 0 0 Z M-5 2 C-6.32 3.32 -7.64 4.64 -9 6 C-6.36 6 -3.72 6 -1 6 C-2.32 4.68 -3.64 3.36 -5 2 Z " fill="#EDB635" transform="translate(453,390)"/>
<path d="M0 0 C2 2 2 2 2.1953125 5.0390625 C2.17210937 6.22242188 2.14890625 7.40578125 2.125 8.625 C2.10695312 9.81351562 2.08890625 11.00203125 2.0703125 12.2265625 C2.04710937 13.14179688 2.02390625 14.05703125 2 15 C0.41870971 15.22331199 -1.16521089 15.42804644 -2.75 15.625 C-4.07257813 15.79902344 -4.07257813 15.79902344 -5.421875 15.9765625 C-8.22859878 16.00207817 -9.63384866 15.44843844 -12 14 C-12.125 11.125 -12.125 11.125 -12 8 C-9.3144406 5.3144406 -6.62378672 4.93950026 -3 4 C-5.64 4 -8.28 4 -11 4 C-11.33 3.01 -11.66 2.02 -12 1 C-7.68024478 -1.22532845 -4.70081591 -1.06433568 0 0 Z M-8 10 C-8 10.66 -8 11.32 -8 12 C-6.35 12 -4.7 12 -3 12 C-2.67 10.68 -2.34 9.36 -2 8 C-5.18490007 7.7226499 -5.18490007 7.7226499 -8 10 Z " fill="#F7AF10" transform="translate(167,390)"/>
<path d="M0 0 C1.9375 1.1875 1.9375 1.1875 3 3 C3.1875 6.1875 3.1875 6.1875 3 9 C-0.3 9.33 -3.6 9.66 -7 10 C-5.81575674 11.41577477 -5.81575674 11.41577477 -2.4375 11.0625 C-0.7359375 11.0315625 -0.7359375 11.0315625 1 11 C1 12.32 1 13.64 1 15 C-5.26535627 16.35135135 -5.26535627 16.35135135 -8.875 14.625 C-11.96252175 12.26395396 -11.96252175 12.26395396 -12.2734375 10.07421875 C-12.54495413 3.69357798 -12.54495413 3.69357798 -9.9375 0.375 C-6.11150281 -1.4158923 -4.03368093 -1.12046692 0 0 Z M-5 2 C-5.99 2.66 -6.98 3.32 -8 4 C-8 4.66 -8 5.32 -8 6 C-5.69 6 -3.38 6 -1 6 C-1.33 5.01 -1.66 4.02 -2 3 C-2.99 2.67 -3.98 2.34 -5 2 Z " fill="#EEB13C" transform="translate(141,390)"/>
<path d="M0 0 C4.7693662 1.41314554 4.7693662 1.41314554 6.375 4 C7.29946251 7.27117504 7.50474798 9.42910887 6.75 12.75 C5.375 15 5.375 15 3.125 16.375 C-0.22550188 17.1364777 -2.3377468 17.00046837 -5.625 16 C-8.34509268 13.64258635 -8.60387341 12.14524531 -9.125 8.5625 C-8.625 5 -8.625 5 -6.5625 2 C-3.625 0 -3.625 0 0 0 Z M-2.625 4 C-3.285 4.66 -3.945 5.32 -4.625 6 C-4.30301034 9.09926819 -4.30301034 9.09926819 -3.625 12 C-1.975 12.33 -0.325 12.66 1.375 13 C2.72939668 10.29120665 2.44001451 7.99066732 2.375 5 C-0.02219432 4.32041397 -0.02219432 4.32041397 -2.625 4 Z " fill="#F1B331" transform="translate(396.625,389)"/>
<path d="M0 0 C2 2.125 2 2.125 3 5 C2.88105265 8.44947304 2.67554298 10.93335319 0.8125 13.875 C-1.84199392 15.52261692 -3.88327487 15.87533099 -7 16 C-11.56521739 13.86956522 -11.56521739 13.86956522 -13 11 C-13.45723173 4.8273717 -13.45723173 4.8273717 -11.6875 1.625 C-8.0958677 -1.83360888 -4.54037605 -1.13509401 0 0 Z M-7 3 C-9.33391203 5.78114056 -9.33391203 5.78114056 -8.625 8.6875 C-8.41875 9.450625 -8.2125 10.21375 -8 11 C-6.35 11.33 -4.7 11.66 -3 12 C-0.66608797 9.21885944 -0.66608797 9.21885944 -1.375 6.3125 C-1.58125 5.549375 -1.7875 4.78625 -2 4 C-3.65 3.67 -5.3 3.34 -7 3 Z " fill="#F1B32A" transform="translate(323,390)"/>
<path d="M0 0 C0.66 0.33 1.32 0.66 2 1 C1.34 2.32 0.68 3.64 0 5 C-2.31 4.67 -4.62 4.34 -7 4 C-8.98362069 6.91708924 -8.9876191 8.12380904 -8.625 11.75 C-8.41875 12.8225 -8.2125 13.895 -8 15 C-4.56484998 15.62457273 -1.50935186 16 2 16 C1.375 17.9375 1.375 17.9375 0 20 C-3.2443052 21.0093394 -5.37732537 21.14480805 -8.6875 20.375 C-11.70746804 18.57934333 -12.65569181 17.25464089 -14 14 C-14.55030372 9.04726649 -14.52164446 6.9893257 -12.1875 2.5625 C-8.41014879 -1.86239714 -5.37123015 -0.9765873 0 0 Z " fill="#F0B22E" transform="translate(376,385)"/>
<path d="M0 0 C0.63550781 0.18304688 1.27101562 0.36609375 1.92578125 0.5546875 C2.25578125 1.2146875 2.58578125 1.8746875 2.92578125 2.5546875 C2.59578125 3.2146875 2.26578125 3.8746875 1.92578125 4.5546875 C-0.38421875 4.2246875 -2.69421875 3.8946875 -5.07421875 3.5546875 C-5.40421875 4.2146875 -5.73421875 4.8746875 -6.07421875 5.5546875 C-4.98109375 5.6578125 -3.88796875 5.7609375 -2.76171875 5.8671875 C0.92578125 6.5546875 0.92578125 6.5546875 2.92578125 7.8046875 C3.92578125 9.5546875 3.92578125 9.5546875 3.92578125 12.1171875 C2.92578125 14.5546875 2.92578125 14.5546875 0.92578125 15.9921875 C-3.36256148 16.79625176 -6.92814577 15.72895654 -11.07421875 14.5546875 C-10.74421875 13.2346875 -10.41421875 11.9146875 -10.07421875 10.5546875 C-5.61921875 11.5446875 -5.61921875 11.5446875 -1.07421875 12.5546875 C-1.87239208 10.40053982 -1.87239208 10.40053982 -3.88671875 9.84375 C-5.3436122 9.40147877 -6.80195837 8.96396468 -8.26171875 8.53125 C-10.07421875 7.5546875 -10.07421875 7.5546875 -10.91015625 5.59765625 C-11.07421875 3.5546875 -11.07421875 3.5546875 -9.69921875 1.2421875 C-6.20479061 -1.00423059 -4.00576914 -0.53759913 0 0 Z " fill="#F1B533" transform="translate(192.07421875,389.4453125)"/>
<path d="M0 0 C1 1 1 1 1.09765625 4.16015625 C1.08605469 5.44792969 1.07445312 6.73570312 1.0625 8.0625 C1.05347656 9.35285156 1.04445313 10.64320313 1.03515625 11.97265625 C1.02355469 12.97167969 1.01195312 13.97070312 1 15 C-0.32 15 -1.64 15 -3 15 C-3.33 11.37 -3.66 7.74 -4 4 C-5.32 4.33 -6.64 4.66 -8 5 C-8.33 8.3 -8.66 11.6 -9 15 C-10.32 15 -11.64 15 -13 15 C-13 10.05 -13 5.1 -13 0 C-4.875 -1.16071429 -4.875 -1.16071429 0 0 Z " fill="#E2B13D" transform="translate(272,390)"/>
<path d="M0 0 C4.62 0 9.24 0 14 0 C14 0.99 14 1.98 14 3 C12.35 3 10.7 3 9 3 C9 7.62 9 12.24 9 17 C10.65 17 12.3 17 14 17 C14 17.99 14 18.98 14 20 C9.38 20 4.76 20 0 20 C0 19.01 0 18.02 0 17 C1.65 17 3.3 17 5 17 C5 12.38 5 7.76 5 3 C3.35 3 1.7 3 0 3 C0 2.01 0 1.02 0 0 Z " fill="#F2AF20" transform="translate(77,385)"/>
<path d="M0 0 C4.62 0 9.24 0 14 0 C14 0.99 14 1.98 14 3 C12.35 3 10.7 3 9 3 C9 7.62 9 12.24 9 17 C10.65 17 12.3 17 14 17 C14 17.99 14 18.98 14 20 C9.38 20 4.76 20 0 20 C0 19.01 0 18.02 0 17 C1.65 17 3.3 17 5 17 C5 12.38 5 7.76 5 3 C3.35 3 1.7 3 0 3 C0 2.01 0 1.02 0 0 Z " fill="#F1B022" transform="translate(233,385)"/>
<path d="M0 0 C0.66 0 1.32 0 2 0 C2 13.86 2 27.72 2 42 C4.77119784 40.2941742 4.77119784 40.2941742 6 39 C6.15996166 36.40846893 6.25938697 33.8404798 6.31640625 31.24609375 C6.33718735 30.47064713 6.35796844 29.6952005 6.37937927 28.89625549 C6.44495802 26.41009692 6.50379799 23.92382955 6.5625 21.4375 C6.60567733 19.75584796 6.64929136 18.07420706 6.69335938 16.39257812 C6.80064779 12.26183129 6.90189132 8.13097464 7 4 C7.33 4 7.66 4 8 4 C8 16.87 8 29.74 8 43 C5.36 43 2.72 43 0 43 C0 28.81 0 14.62 0 0 Z " fill="#2B417F" transform="translate(447,331)"/>
<path d="M0 0 C0.99 0 1.98 0 3 0 C3 1.65 3 3.3 3 5 C5.31 5 7.62 5 10 5 C10 5.99 10 6.98 10 8 C7.69 8 5.38 8 3 8 C3.33 10.97 3.66 13.94 4 17 C6.31 17 8.62 17 11 17 C11 17.99 11 18.98 11 20 C4.6812749 21.21513944 4.6812749 21.21513944 1.625 20.25 C0 19 0 19 -1 16 C-1.12781786 13.32605036 -1.04391871 10.67904143 -1 8 C-2.32 8 -3.64 8 -5 8 C-5 7.01 -5 6.02 -5 5 C-3.68 4.67 -2.36 4.34 -1 4 C-0.67 2.68 -0.34 1.36 0 0 Z " fill="#EEB32D" transform="translate(289,385)"/>
<path d="M0 0 C1.5625 1.8125 1.5625 1.8125 3 4 C2.67 4.99 2.34 5.98 2 7 C2.66 7.66 3.32 8.32 4 9 C0.96576019 10.5171199 -2.17504794 10.18439257 -5.5 10.1875 C-6.18964844 10.19974609 -6.87929688 10.21199219 -7.58984375 10.22460938 C-9.39477494 10.22988695 -11.19917842 10.12184458 -13 10 C-13.66 9.34 -14.32 8.68 -15 8 C-14.44444444 3.44444444 -14.44444444 3.44444444 -13 2 C-10.81360547 1.92741054 -8.62499611 1.91626217 -6.4375 1.9375 C-4.64119141 1.95103516 -4.64119141 1.95103516 -2.80859375 1.96484375 C-1.88175781 1.97644531 -0.95492188 1.98804688 0 2 C0 1.34 0 0.68 0 0 Z " fill="#304E91" transform="translate(356,368)"/>
<path d="M0 0 C1.65 0 3.3 0 5 0 C5.2236337 1.41433206 5.42826476 2.83167618 5.625 4.25 C5.74101562 5.03890625 5.85703125 5.8278125 5.9765625 6.640625 C6.00319395 9.32152459 5.36592084 10.72694089 4 13 C3.34 13 2.68 13 2 13 C2 13.66 2 14.32 2 15 C-6.57142857 15.28571429 -6.57142857 15.28571429 -10 13 C-10 12.01 -10 11.02 -10 10 C-9.34 10 -8.68 10 -8 10 C-8.33 8.35 -8.66 6.7 -9 5 C-5.38144425 5.62388892 -4.8290723 6.1709277 -2 9 C-1.34 6.03 -0.68 3.06 0 0 Z " fill="#2C4D97" transform="translate(180,358)"/>
<path d="M0 0 C6.27 0 12.54 0 19 0 C19 0.66 19 1.32 19 2 C20.32 2.33 21.64 2.66 23 3 C23 4.65 23 6.3 23 8 C22.43829102 7.83701416 21.87658203 7.67402832 21.29785156 7.50610352 C18.86446819 6.97014902 16.72377772 6.88638604 14.234375 6.90234375 C13.34492188 6.90556641 12.45546875 6.90878906 11.5390625 6.91210938 C10.61867187 6.92048828 9.69828125 6.92886719 8.75 6.9375 C7.34621094 6.94426758 7.34621094 6.94426758 5.9140625 6.95117188 C3.60930959 6.96293082 1.30468773 6.97936574 -1 7 C-0.34 6.01 0.32 5.02 1 4 C2.9453125 3.70703125 2.9453125 3.70703125 5.125 3.8125 C6.40375 3.874375 7.6825 3.93625 9 4 C8.67 3.34 8.34 2.68 8 2 C5.69 2 3.38 2 1 2 C0.67 1.34 0.34 0.68 0 0 Z " fill="#284690" transform="translate(238,355)"/>
<path d="M0 0 C0.99 0.66 1.98 1.32 3 2 C3.2578125 4.4609375 3.2578125 4.4609375 3.125 7.375 C2.98567111 10.8210678 2.98050635 13.69056676 4 17 C3.01 17.33 2.02 17.66 1 18 C0.67 20.97 0.34 23.94 0 27 C-1.88259934 23.23480131 -2.52316422 20.72321505 -3.125 16.625 C-3.29257813 15.52414062 -3.46015625 14.42328125 -3.6328125 13.2890625 C-3.9822472 10.15901977 -4.06653344 7.14608144 -4 4 C-3.34 4 -2.68 4 -2 4 C-1.34 2.68 -0.68 1.36 0 0 Z " fill="#2F4F95" transform="translate(197,334)"/>
<path d="M0 0 C1.9673414 3.53589738 3.02254088 7.17939398 4.125 11.0625 C4.47820312 12.29097656 4.83140625 13.51945312 5.1953125 14.78515625 C6 18 6 18 6 21 C3.36 21 0.72 21 -2 21 C-2.50403768 19.70990357 -3.00309926 18.41786211 -3.5 17.125 C-3.7784375 16.40570313 -4.056875 15.68640625 -4.34375 14.9453125 C-5 13 -5 13 -5 11 C-4.360625 10.443125 -3.72125 9.88625 -3.0625 9.3125 C-0.38084069 6.30579108 -0.30333855 3.94340119 0 0 Z " fill="#2A4C96" transform="translate(111,353)"/>
<path d="M0 0 C0.96956854 3.05186339 1.1635271 3.66515879 -0.3125 6.6875 C-2 9 -2 9 -4 10 C-4.66 9.67 -5.32 9.34 -6 9 C-6.2475 9.804375 -6.495 10.60875 -6.75 11.4375 C-7.1625 12.283125 -7.575 13.12875 -8 14 C-10.0625 14.625 -10.0625 14.625 -12 15 C-12.33 15.99 -12.66 16.98 -13 18 C-15.00121175 20.36506843 -15.96799661 20.9893322 -19 22 C-19.6496875 23.2065625 -19.6496875 23.2065625 -20.3125 24.4375 C-22.46245976 27.70225371 -24.28533211 28.09197007 -28 29 C-22.61359076 22.44622903 -16.64114873 16.52753365 -10.625 10.5625 C-9.59221405 9.53474017 -8.55966009 8.50674715 -7.52734375 7.47851562 C-5.02089713 4.98298402 -2.5113292 2.49061918 0 0 Z M-5 10 C-5 13 -5 13 -5 13 Z " fill="#F5B937" transform="translate(277,139)"/>
<path d="M0 0 C0.33 0 0.66 0 1 0 C1.33 3.96 1.66 7.92 2 12 C0.68 11.67 -0.64 11.34 -2 11 C-1.67 12.65 -1.34 14.3 -1 16 C-1.66 16 -2.32 16 -3 16 C-2.67 16.99 -2.34 17.98 -2 19 C1.63 19.66 5.26 20.32 9 21 C9 20.34 9 19.68 9 19 C9.66 19 10.32 19 11 19 C11.12375 18.4225 11.2475 17.845 11.375 17.25 C12.00648824 14.97664233 12.88858191 13.0746471 14 11 C14.32469403 15.65394781 13.79790518 18.23358918 11 22 C7.53431742 23.73284129 3.78929407 23.47120755 0 23 C-3.32599837 21.12912592 -4.64171291 20.04926934 -5.875 16.4375 C-6 14 -6 14 -5 11 C-4.96125079 9.33378384 -4.9549714 7.66605828 -5 6 C-3.68 6 -2.36 6 -1 6 C-0.67 4.02 -0.34 2.04 0 0 Z " fill="#3D5B9E" transform="translate(173,352)"/>
<path d="M0 0 C2.31 0 4.62 0 7 0 C8.08497475 3.25492424 7.92463702 4.76151185 7.44140625 8.10546875 C7.30283203 9.08837891 7.16425781 10.07128906 7.02148438 11.08398438 C6.79428711 12.62022461 6.79428711 12.62022461 6.5625 14.1875 C6.41490234 15.22326172 6.26730469 16.25902344 6.11523438 17.32617188 C5.74967733 19.88507121 5.37769682 22.44286908 5 25 C2.5705484 21.3558226 2.83820425 19.28758728 3 15 C3.66 15 4.32 15 5 15 C4.67 11.7 4.34 8.4 4 5 C3.01 4.67 2.02 4.34 1 4 C1.20625 4.556875 1.4125 5.11375 1.625 5.6875 C2.11442853 8.7056426 1.1545231 10.17783242 0 13 C-0.4563812 15.66387722 -0.72626861 18.30830799 -1 21 C-1.66 21 -2.32 21 -3 21 C-2.22095672 6.21867882 -2.22095672 6.21867882 0 0 Z " fill="#3C5493" transform="translate(214,330)"/>
<path d="M0 0 C0 1.32 0 2.64 0 4 C-1.65 4 -3.3 4 -5 4 C-5 4.99 -5 5.98 -5 7 C-2.03 7.495 -2.03 7.495 1 8 C1 9.32 1 10.64 1 12 C-2.96 12 -6.92 12 -11 12 C-11 10.68 -11 9.36 -11 8 C-10.34 8 -9.68 8 -9 8 C-9.103125 7.236875 -9.20625 6.47375 -9.3125 5.6875 C-9 3 -9 3 -6.75 1.1875 C-4 0 -4 0 0 0 Z " fill="#274487" transform="translate(456,315)"/>
<path d="M0 0 C0.33 0 0.66 0 1 0 C1.99 7.59 2.98 15.18 4 23 C1.36 23.66 -1.28 24.32 -4 25 C-3.91266424 23.39482903 -3.80447776 21.79078338 -3.6875 20.1875 C-3.62949219 19.29417969 -3.57148438 18.40085937 -3.51171875 17.48046875 C-2.92794153 14.65070897 -2.07189402 13.90252939 0 12 C-0.27942455 10.32345271 -0.62331656 8.65740715 -1 7 C-0.73128549 4.65834501 -0.40961596 2.32115711 0 0 Z " fill="#34549E" transform="translate(200,339)"/>
<path d="M0 0 C2.23892859 2.82299691 2 4.2791079 2 8 C-2.29 8 -6.58 8 -11 8 C-11 2 -11 2 -9.4375 0.0625 C-5.91944304 -1.47101201 -3.64925853 -1.01368293 0 0 Z M-5 2 C-5.99 2.66 -6.98 3.32 -8 4 C-8 4.66 -8 5.32 -8 6 C-5.69 6 -3.38 6 -1 6 C-1.33 5.01 -1.66 4.02 -2 3 C-2.99 2.67 -3.98 2.34 -5 2 Z " fill="#F6AE17" transform="translate(141,390)"/>
<path d="M0 0 C0.99 0 1.98 0 3 0 C2.67 3.63 2.34 7.26 2 11 C-0.31 10.67 -2.62 10.34 -5 10 C-5.268125 10.969375 -5.53625 11.93875 -5.8125 12.9375 C-6.204375 13.948125 -6.59625 14.95875 -7 16 C-7.99 16.33 -8.98 16.66 -10 17 C-9.9129995 15.37399059 -9.8048219 13.74910322 -9.6875 12.125 C-9.62949219 11.22007812 -9.57148438 10.31515625 -9.51171875 9.3828125 C-9 7 -9 7 -6 5 C-2.8125 5.375 -2.8125 5.375 0 6 C0 4.02 0 2.04 0 0 Z " fill="#F0B226" transform="translate(425,384)"/>
<path d="M0 0 C1.32 0.66 2.64 1.32 4 2 C2.68 6.29 1.36 10.58 0 15 C-2.64 15 -5.28 15 -8 15 C-7.14285714 6.42857143 -7.14285714 6.42857143 -5 3 C-5 5.64 -5 8.28 -5 11 C-4.01 11 -3.02 11 -2 11 C-2.33 9.35 -2.66 7.7 -3 6 C-2.34 6 -1.68 6 -1 6 C-0.67 4.02 -0.34 2.04 0 0 Z " fill="#365597" transform="translate(234,359)"/>
<path d="M0 0 C2.31 0 4.62 0 7 0 C8.20272819 2.40545638 8.10071472 3.94996953 8.0625 6.625 C8.05347656 7.44226563 8.04445312 8.25953125 8.03515625 9.1015625 C8.02355469 9.72804688 8.01195312 10.35453125 8 11 C6 11 4 11 2 11 C-1.07692308 4.6 -1.07692308 4.6 -0.6875 1.5625 C-0.460625 1.046875 -0.23375 0.53125 0 0 Z " fill="#304F97" transform="translate(163,330)"/>
<path d="M0 0 C1 1 1 1 1.0625 4.0625 C1.041875 5.031875 1.02125 6.00125 1 7 C-1.70834531 8.77084117 -2.89264459 9.01052504 -6.1875 8.6875 C-9 8 -9 8 -10 7 C-10.1875 4.0625 -10.1875 4.0625 -10 1 C-6.56137303 -2.43862697 -4.08345624 -2.53455904 0 0 Z M-6 3 C-6 3.66 -6 4.32 -6 5 C-4.35 5 -2.7 5 -1 5 C-0.67 3.68 -0.34 2.36 0 1 C-3.18490007 0.7226499 -3.18490007 0.7226499 -6 3 Z " fill="#F3B327" transform="translate(165,397)"/>
<path d="M0 0 C0.33 0.66 0.66 1.32 1 2 C-0.24043916 5.60855029 -1.71727692 6.35863846 -5 8 C-6.26804566 10.0335948 -6.26804566 10.0335948 -7 12 C-7.66 12 -8.32 12 -9 12 C-9.268125 12.639375 -9.53625 13.27875 -9.8125 13.9375 C-11 16 -11 16 -14 17 C-14.33 17.99 -14.66 18.98 -15 20 C-15.66 20 -16.32 20 -17 20 C-17 20.66 -17 21.32 -17 22 C-18.32 21.67 -19.64 21.34 -21 21 C-14.07 14.07 -7.14 7.14 0 0 Z " fill="#F6B431" transform="translate(229,187)"/>
<path d="M0 0 C3.35107228 0.18278576 6.00231123 0.36813045 8.875 2.1875 C11.03475317 5.66710232 11.27135381 8.80604326 10.375 12.75 C8.61190321 15.63506748 7.24825669 16.20774227 4 17 C3.01 16.67 2.02 16.34 1 16 C1.66 15.67 2.32 15.34 3 15 C2.67 14.34 2.34 13.68 2 13 C2.99 13 3.98 13 5 13 C5.33 11.02 5.66 9.04 6 7 C6.66 7 7.32 7 8 7 C7.5899433 4.92064793 7.5899433 4.92064793 6 3 C3.30341548 2.31209578 0.7982981 2.18053536 -2 2 C-1.34 1.34 -0.68 0.68 0 0 Z " fill="#EEB945" transform="translate(393,389)"/>
<path d="M0 0 C6.70518586 -0.19818283 12.65176798 -0.30844801 19 2 C18.34 2.66 17.68 3.32 17 4 C14.39508339 3.8185339 11.94318377 3.53723614 9.375 3.125 C8.66859375 3.02058594 7.9621875 2.91617187 7.234375 2.80859375 C5.48807586 2.54900874 3.74381401 2.27578567 2 2 C2 3.32 2 4.64 2 6 C2.90492188 5.98259766 2.90492188 5.98259766 3.828125 5.96484375 C5.02695312 5.95130859 5.02695312 5.95130859 6.25 5.9375 C7.43335938 5.92009766 7.43335938 5.92009766 8.640625 5.90234375 C10.90691002 5.99614694 12.8288895 6.36758937 15 7 C14.67 7.99 14.34 8.98 14 10 C13.175 9.67 12.35 9.34 11.5 9 C7.4126017 7.83217191 4.23076656 7.8541115 0 8 C0 5.36 0 2.72 0 0 Z " fill="#E9B33D" transform="translate(287,331)"/>
<path d="M0 0 C0.33 0 0.66 0 1 0 C1.33 2.31 1.66 4.62 2 7 C2 5.35 2 3.7 2 2 C2.66 1.67 3.32 1.34 4 1 C4.33 3.31 4.66 5.62 5 8 C6.32 8 7.64 8 9 8 C9.33 6.02 9.66 4.04 10 2 C10.33 2 10.66 2 11 2 C11 4.97 11 7.94 11 11 C7.6009248 12.50191695 5.79840386 13.24839231 2.1875 12.125 C-1.09185643 8.93933947 -0.85656454 6.51821705 -1 2 C-0.67 1.34 -0.34 0.68 0 0 Z " fill="#EEB543" transform="translate(103,393)"/>
<path d="M0 0 C0.99 0 1.98 0 3 0 C3 1.65 3 3.3 3 5 C5.31 5 7.62 5 10 5 C10 5.99 10 6.98 10 8 C7.69 8.33 5.38 8.66 3 9 C2.67 11.31 2.34 13.62 2 16 C-0.29013653 12.5647952 -0.17842973 11.014669 0 7 C-0.66 7 -1.32 7 -2 7 C-1.34 4.69 -0.68 2.38 0 0 Z " fill="#F3B019" transform="translate(289,385)"/>
<path d="M0 0 C0.99 0.33 1.98 0.66 3 1 C1.625 3 1.625 3 0 5 C-0.66 5 -1.32 5 -2 5 C-2.33 6.32 -2.66 7.64 -3 9 C-3.61875 9.061875 -4.2375 9.12375 -4.875 9.1875 C-7.27761141 9.828919 -7.27761141 9.828919 -8.25 12.5625 C-8.4975 13.366875 -8.745 14.17125 -9 15 C-9.99 14.67 -10.98 14.34 -12 14 C-12.33 14.99 -12.66 15.98 -13 17 C-13.99 16.67 -14.98 16.34 -16 16 C-10.72 10.72 -5.44 5.44 0 0 Z " fill="#324D8B" transform="translate(344,236)"/>
<path d="M0 0 C0.8353125 1.0209375 0.8353125 1.0209375 1.6875 2.0625 C3.8414382 4.31133337 3.8414382 4.31133337 6.6875 3.875 C9.16427096 3.23669149 9.16427096 3.23669149 10 1 C10.12375 1.639375 10.2475 2.27875 10.375 2.9375 C10.58125 3.618125 10.7875 4.29875 11 5 C11.66 5.33 12.32 5.66 13 6 C12.67 6.99 12.34 7.98 12 9 C9.375 9.8125 9.375 9.8125 6 10 C2.80772174 7.89189171 0.55521979 6.3325275 -0.9375 2.75 C-0.958125 2.1725 -0.97875 1.595 -1 1 C-0.67 0.67 -0.34 0.34 0 0 Z " fill="#234799" transform="translate(126,364)"/>
<path d="M0 0 C0.33 0 0.66 0 1 0 C1.84098656 4.01804691 2.05404945 7.01803543 1 11 C1.99 11 2.98 11 4 11 C4 9.35 4 7.7 4 6 C4.99 6 5.98 6 7 6 C6.125 12.875 6.125 12.875 5 14 C2.32941149 14.14115161 -0.32432238 14.04247107 -3 14 C-2.68872484 12.41642541 -2.37592711 10.83315007 -2.0625 9.25 C-1.80146484 7.92742187 -1.80146484 7.92742187 -1.53515625 6.578125 C-1.07631512 4.36764947 -0.56663926 2.18487932 0 0 Z " fill="#3E5698" transform="translate(79,360)"/>
<path d="M0 0 C1 2 1 2 1 6 C1.66 5.67 2.32 5.34 3 5 C3 5.66 3 6.32 3 7 C3.66 7.33 4.32 7.66 5 8 C4.34 9.98 3.68 11.96 3 14 C2.38125 13.505 1.7625 13.01 1.125 12.5 C-0.83880904 10.80777227 -0.83880904 10.80777227 -3 11 C-3 11.66 -3 12.32 -3 13 C-3.99 12.67 -4.98 12.34 -6 12 C-5.38144369 10.3725363 -4.75492695 8.74809644 -4.125 7.125 C-3.77695313 6.22007812 -3.42890625 5.31515625 -3.0703125 4.3828125 C-2 2 -2 2 0 0 Z " fill="#3C5F9B" transform="translate(90,330)"/>
<path d="M0 0 C0.33 0 0.66 0 1 0 C1 1.65 1 3.3 1 5 C5.49656104 7.24828052 9.07872966 7.16682272 14 7 C14 8.32 14 9.64 14 11 C9.90117075 11.90174243 7.58755072 12.22849195 3.625 10.6875 C1 9 1 9 0 7 C-0.04022391 4.6670134 -0.04320247 2.33293334 0 0 Z " fill="#F1B53B" transform="translate(440,394)"/>
<path d="M0 0 C-0.99 0.33 -1.98 0.66 -3 1 C-3 2.65 -3 4.3 -3 6 C-7.75 7 -7.75 7 -10 7 C-10.99 7.495 -10.99 7.495 -12 8 C-11.125 2.25 -11.125 2.25 -10 0 C-6.30581799 -1.231394 -3.7943739 -0.64432764 0 0 Z " fill="#254897" transform="translate(101,330)"/>
<path d="M0 0 C-3.22294702 0.8989625 -4.77685409 0.80578648 -8 0 C-10.76031036 -0.25195531 -13.20044756 -0.17774936 -16 0 C-17.58333333 1.41666667 -17.58333333 1.41666667 -19 3 C-22.6875 3.6875 -22.6875 3.6875 -26 4 C-18.2464165 -4.6657698 -10.07984778 -4.24414643 0 0 Z " fill="#3E5791" transform="translate(201,71)"/>
<path d="M0 0 C4.83256305 0.41421969 6.82679218 2.46413986 10 6 C7 8 7 8 4 8 C4 8.99 4 9.98 4 11 C3.34 11 2.68 11 2 11 C0.375 9 0.375 9 -1 7 C-0.34 6.01 0.32 5.02 1 4 C0.69159401 1.84725052 0.69159401 1.84725052 0 0 Z " fill="#395797" transform="translate(430,338)"/>
<path d="M0 0 C0.33 0.66 0.66 1.32 1 2 C0.67 2.99 0.34 3.98 0 5 C-0.66 5 -1.32 5 -2 5 C-2.33 5.99 -2.66 6.98 -3 8 C-4.64333504 9.03789581 -6.31243867 10.03567924 -8 11 C-10.40879165 13.06467856 -10.96331553 13.88994659 -12 17 C-12.99 17.33 -13.98 17.66 -15 18 C-15.33 18.99 -15.66 19.98 -16 21 C-17.65 21.33 -19.3 21.66 -21 22 C-16.61557474 16.74825074 -11.99157907 11.86777527 -7.125 7.0625 C-6.43664062 6.37865234 -5.74828125 5.69480469 -5.0390625 4.99023438 C-3.36166489 3.32448536 -1.68196209 1.6611378 0 0 Z " fill="#314C89" transform="translate(154,95)"/>
<path d="M0 0 C2.73704754 2.73704754 3.16182449 5.26044774 4 9 C3.625 11.4375 3.625 11.4375 3 13 C2.01 11.68 1.02 10.36 0 9 C-0.99 10.98 -1.98 12.96 -3 15 C-4.64826111 12.03312999 -5.44271087 9.34373475 -6 6 C-4.02 5.67 -2.04 5.34 0 5 C0 3.35 0 1.7 0 0 Z " fill="#465E9F" transform="translate(255,335)"/>
<path d="M0 0 C0.33 0.99 0.66 1.98 1 3 C-0.2065625 3.6496875 -0.2065625 3.6496875 -1.4375 4.3125 C-4.27846354 5.80474002 -4.27846354 5.80474002 -5 9 C-5.99 8.67 -6.98 8.34 -8 8 C-9.32 9.98 -10.64 11.96 -12 14 C-12.66 12.68 -13.32 11.36 -14 10 C-12.75645114 8.70212134 -11.5048736 7.41193241 -10.25 6.125 C-9.55390625 5.40570313 -8.8578125 4.68640625 -8.140625 3.9453125 C-5.59724245 1.6339904 -3.5051076 0 0 0 Z " fill="#2E4D8F" transform="translate(339,69)"/>
<path d="M0 0 C1.98 0 3.96 0 6 0 C5.67 12.87 5.34 25.74 5 39 C4.01 39.495 4.01 39.495 3 40 C3.01571045 38.91992676 3.0314209 37.83985352 3.04760742 36.72705078 C3.10182234 32.7277774 3.13631904 28.72853662 3.16479492 24.72900391 C3.1799009 22.99652651 3.20038694 21.26408746 3.22631836 19.53173828 C3.26262321 17.04450022 3.27970765 14.55776674 3.29296875 12.0703125 C3.30845261 11.29317902 3.32393646 10.51604553 3.33988953 9.71536255 C3.37569565 7.30264162 3.37569565 7.30264162 3 4 C2.01 3.34 1.02 2.68 0 2 C0 1.34 0 0.68 0 0 Z " fill="#22438C" transform="translate(449,331)"/>
<path d="M0 0 C2 2 2 2 2.25 5.375 C2.02515633 8.63523324 1.7239511 10.30632641 0 13 C-0.66 13 -1.32 13 -2 13 C-4.41685712 8.77050005 -5.34833144 5.87664009 -5 1 C-3.515 1.99 -3.515 1.99 -2 3 C-1.34 3 -0.68 3 0 3 C0 2.01 0 1.02 0 0 Z " fill="#25488D" transform="translate(188,340)"/>
<path d="M0 0 C0.33 0 0.66 0 1 0 C1 6.93 1 13.86 1 21 C-0.32 21.33 -1.64 21.66 -3 22 C-2.814375 21.360625 -2.62875 20.72125 -2.4375 20.0625 C-2.2209375 19.0415625 -2.2209375 19.0415625 -2 18 C-2.33 17.67 -2.66 17.34 -3 17 C-3.19382275 13.51119051 -2.77675511 10.39830361 -2 7 C-1.67 7 -1.34 7 -1 7 C-0.67 4.69 -0.34 2.38 0 0 Z " fill="#224999" transform="translate(282,349)"/>
<path d="M0 0 C1.65234375 1.09765625 1.65234375 1.09765625 4.08984375 3.03515625 C2.10984375 4.02515625 2.10984375 4.02515625 0.08984375 5.03515625 C0.08984375 4.04515625 0.08984375 3.05515625 0.08984375 2.03515625 C-7.23237952 1.03721777 -12.32056939 0.53005686 -18.91015625 4.03515625 C-19.90015625 4.03515625 -20.89015625 4.03515625 -21.91015625 4.03515625 C-15.51532203 -1.60734453 -7.99409765 -4.03791844 0 0 Z " fill="#F2B736" transform="translate(315.91015625,117.96484375)"/>
<path d="M0 0 C1.79093191 -0.08086147 3.58289628 -0.13912702 5.375 -0.1875 C6.87160156 -0.23970703 6.87160156 -0.23970703 8.3984375 -0.29296875 C9.25695312 -0.19628906 10.11546875 -0.09960938 11 0 C11.66 0.99 12.32 1.98 13 3 C12.67 3.66 12.34 4.32 12 5 C8.04 4.67 4.08 4.34 0 4 C0 2.68 0 1.36 0 0 Z " fill="#FDB004" transform="translate(289,333)"/>
<path d="M0 0 C0.33 0 0.66 0 1 0 C1.32469403 4.65394781 0.79790518 7.23358918 -2 11 C-5.43071316 12.71535658 -9.24058819 12.4006478 -13 12 C-15.5625 10.5 -15.5625 10.5 -17 9 C-16.67 7.68 -16.34 6.36 -16 5 C-15.67 5.99 -15.34 6.98 -15 8 C-11.37 8.66 -7.74 9.32 -4 10 C-4 9.34 -4 8.68 -4 8 C-3.34 8 -2.68 8 -2 8 C-1.855625 7.4225 -1.71125 6.845 -1.5625 6.25 C-1.04166667 4.16666667 -0.52083333 2.08333333 0 0 Z " fill="#485C92" transform="translate(186,363)"/>
<path d="M0 0 C5.10284493 3.72369765 7.45225112 6.61337988 8.875 12.8125 C9.34414575 17.45969842 7.87988433 20.78905911 6 25 C5.67 25 5.34 25 5 25 C5.09539062 24.03578125 5.19078125 23.0715625 5.2890625 22.078125 C5.39992188 20.81484375 5.51078125 19.5515625 5.625 18.25 C5.74101562 16.99703125 5.85703125 15.7440625 5.9765625 14.453125 C5.99892585 11.15825877 5.95800206 9.6022479 4 7 C3.01 6.67 2.02 6.34 1 6 C0.67 4.02 0.34 2.04 0 0 Z " fill="#F1BB37" transform="translate(324,126)"/>
<path d="M0 0 C0.99 0.33 1.98 0.66 3 1 C2.01 2.485 2.01 2.485 1 4 C3.64 4 6.28 4 9 4 C9.33 4.99 9.66 5.98 10 7 C7.03 7 4.06 7 1 7 C1 7.66 1 8.32 1 9 C-0.32 8.67 -1.64 8.34 -3 8 C-3 6.35 -3 4.7 -3 3 C-2.34 3 -1.68 3 -1 3 C-0.67 2.01 -0.34 1.02 0 0 Z " fill="#F8B015" transform="translate(444,391)"/>
<path d="M0 0 C1.32 0.66 2.64 1.32 4 2 C4 4.31 4 6.62 4 9 C2.02 9.33 0.04 9.66 -2 10 C-2 7.36 -2 4.72 -2 2 C-1.34 2 -0.68 2 0 2 C0 1.34 0 0.68 0 0 Z " fill="#294B91" transform="translate(251,331)"/>
<path d="M0 0 C0.99 0.66 1.98 1.32 3 2 C2.34 3.32 1.68 4.64 1 6 C2.32 5.67 3.64 5.34 5 5 C5.33 3.35 5.66 1.7 6 0 C6.33 0 6.66 0 7 0 C7 2.97 7 5.94 7 9 C1.56193353 9.36253776 1.56193353 9.36253776 -0.9375 7.75 C-2 6 -2 6 -1.75 3.9375 C-1 2 -1 2 0 0 Z " fill="#445A99" transform="translate(278,365)"/>
<path d="M0 0 C-1.32 2.31 -2.64 4.62 -4 7 C-6 7 -8 7 -10 7 C-10 7.66 -10 8.32 -10 9 C-10.66 9 -11.32 9 -12 9 C-10.68954637 5.06863911 -9.16791954 2.68793173 -6 0 C-3 -1 -3 -1 0 0 Z " fill="#3C5797" transform="translate(137,331)"/>
<path d="M0 0 C1 2 1 2 0.9375 3.875 C-0.48024951 7.08856555 -3.08454346 8.17783966 -6 10 C-6.33 10.66 -6.66 11.32 -7 12 C-9.93704456 14.0095568 -11.39222485 15 -15 15 C-10.05 10.05 -5.1 5.1 0 0 Z " fill="#F4BA3F" transform="translate(293,123)"/>
<path d="M0 0 C2.5 0.125 2.5 0.125 3.5 1.125 C4.82594105 1.48662029 6.15938457 1.82228039 7.5 2.125 C6.84 2.125 6.18 2.125 5.5 2.125 C5.5 3.445 5.5 4.765 5.5 6.125 C2.53 5.795 -0.44 5.465 -3.5 5.125 C-3.5 0.175 -3.5 0.175 0 0 Z " fill="#274991" transform="translate(242.5,329.875)"/>
<path d="M0 0 C0.82638376 2.89234315 1 4.88742431 1 8 C1.928125 8.2165625 1.928125 8.2165625 2.875 8.4375 C5 9 5 9 7 10 C7 10.66 7 11.32 7 12 C7.66 12.33 8.32 12.66 9 13 C6.18263828 13.78260048 4.54030762 14.19511109 1.75 13.1875 C0 12 0 12 -1 10 C-1.1328125 8.125 -1.1328125 8.125 -1.125 6 C-1.12886719 4.948125 -1.12886719 4.948125 -1.1328125 3.875 C-1 2 -1 2 0 0 Z " fill="#F1B73C" transform="translate(415,392)"/>
<path d="M0 0 C0.66 0 1.32 0 2 0 C1.34 2.97 0.68 5.94 0 9 C-2.31 8.67 -4.62 8.34 -7 8 C-7.33 10.64 -7.66 13.28 -8 16 C-9.125 14.375 -9.125 14.375 -10 12 C-9.125 8.75 -9.125 8.75 -8 6 C-2.25 4.875 -2.25 4.875 0 6 C0 4.02 0 2.04 0 0 Z " fill="#3C5996" transform="translate(239,346)"/>
<path d="M0 0 C1.89213369 2.38573379 3.02391783 4.07175348 4 7 C3.0625 9.6875 3.0625 9.6875 2 12 C1.34 12 0.68 12 0 12 C0 11.34 0 10.68 0 10 C-0.99 10 -1.98 10 -3 10 C-2.49287967 6.28111761 -1.88391785 3.26545761 0 0 Z " fill="#234893" transform="translate(255,342)"/>
<path d="M0 0 C0 0.66 0 1.32 0 2 C1.32 2.33 2.64 2.66 4 3 C4 4.65 4 6.3 4 8 C1.69 7.67 -0.62 7.34 -3 7 C-3.66 5.02 -4.32 3.04 -5 1 C-3 0 -3 0 0 0 Z " fill="#25499A" transform="translate(257,355)"/>
<path d="M0 0 C0.66 0 1.32 0 2 0 C2 2.64 2 5.28 2 8 C1.01 8.495 1.01 8.495 0 9 C-0.99 8.67 -1.98 8.34 -3 8 C-2.67 10.31 -2.34 12.62 -2 15 C-2.99 15.495 -2.99 15.495 -4 16 C-4.54330269 9.34454208 -3.77304004 5.54165256 0 0 Z " fill="#26468F" transform="translate(171,350)"/>
<path d="M0 0 C1.875 1.3125 1.875 1.3125 2.625 3.4375 C2.74875 4.365625 2.74875 4.365625 2.875 5.3125 C1.885 4.9825 0.895 4.6525 -0.125 4.3125 C-0.125 3.6525 -0.125 2.9925 -0.125 2.3125 C-1.445 2.3125 -2.765 2.3125 -4.125 2.3125 C-2.45575929 5.35384491 -2.45575929 5.35384491 -0.125 6.3125 C-0.785 7.6325 -1.445 8.9525 -2.125 10.3125 C-2.785 10.3125 -3.445 10.3125 -4.125 10.3125 C-4.455 9.3225 -4.785 8.3325 -5.125 7.3125 C-6.115 6.6525 -7.105 5.9925 -8.125 5.3125 C-7.135 5.3125 -6.145 5.3125 -5.125 5.3125 C-5.125 3.6625 -5.125 2.0125 -5.125 0.3125 C-2.125 -0.6875 -2.125 -0.6875 0 0 Z " fill="#3C5999" transform="translate(103.125,330.6875)"/>
<path d="M0 0 C1.32 1.32 2.64 2.64 4 4 C2.18959679 5.33617897 0.3766216 6.66887384 -1.4375 8 C-2.44683594 8.7425 -3.45617187 9.485 -4.49609375 10.25 C-7 12 -7 12 -8 12 C-8 10.35 -8 8.7 -8 7 C-7.01 7 -6.02 7 -5 7 C-4.67 6.34 -4.34 5.68 -4 5 C-3.34 4.67 -2.68 4.34 -2 4 C-2.66 4 -3.32 4 -4 4 C-4 3.34 -4 2.68 -4 2 C-2.68 1.34 -1.36 0.68 0 0 Z " fill="#36579A" transform="translate(424,320)"/>
<path d="M0 0 C0 3.61029169 -0.96092582 6.55806676 -2 10 C-2.66 10 -3.32 10 -4 10 C-2.0443681 18.43217766 -2.0443681 18.43217766 2 26 C1.34 26 0.68 26 0 26 C-3.49156729 22.21217851 -5.37032401 18.14127146 -5.625 13 C-5.37876851 7.6978153 -3.21408566 4.10943809 0 0 Z " fill="#EAB744" transform="translate(207,209)"/>
<path d="M0 0 C3.58790575 0.29899215 4.78166776 0.76986601 7.3125 3.4375 C9 6 9 6 9 8 C9.99 8.33 10.98 8.66 12 9 C12 9.66 12 10.32 12 11 C12.66 11 13.32 11 14 11 C14 11.66 14 12.32 14 13 C14.66 13 15.32 13 16 13 C15.67 13.99 15.34 14.98 15 16 C12.49599357 13.5248518 9.99748094 11.04423106 7.5 8.5625 C6.78457031 7.85544922 6.06914062 7.14839844 5.33203125 6.41992188 C4.65527344 5.74638672 3.97851562 5.07285156 3.28125 4.37890625 C2.65283203 3.7557251 2.02441406 3.13254395 1.37695312 2.49047852 C0 1 0 1 0 0 Z " fill="#354F8C" transform="translate(372,154)"/>
<path d="M0 0 C2 2 2 2 2.1953125 5.0390625 C2.17210937 6.22242188 2.14890625 7.40578125 2.125 8.625 C2.10695312 9.81351562 2.08890625 11.00203125 2.0703125 12.2265625 C2.04710937 13.14179688 2.02390625 14.05703125 2 15 C1.01 14.67 0.02 14.34 -1 14 C-0.34 14 0.32 14 1 14 C0.85962479 12.18706911 0.71255111 10.3746557 0.5625 8.5625 C0.48128906 7.55316406 0.40007812 6.54382813 0.31640625 5.50390625 C0.26788532 3.06359221 0.26788532 3.06359221 -1 2 C-2.34747084 1.76924918 -3.70377565 1.58846937 -5.0625 1.4375 C-6.361875 1.293125 -7.66125 1.14875 -9 1 C-8.67 1.99 -8.34 2.98 -8 4 C-9.32 3.67 -10.64 3.34 -12 3 C-12 2.34 -12 1.68 -12 1 C-7.68024478 -1.22532845 -4.70081591 -1.06433568 0 0 Z " fill="#E7B240" transform="translate(167,390)"/>
<path d="M0 0 C1.17949219 0.01804687 2.35898437 0.03609375 3.57421875 0.0546875 C4.92966797 0.08949219 4.92966797 0.08949219 6.3125 0.125 C6.3125 0.785 6.3125 1.445 6.3125 2.125 C3.8125 3.75 3.8125 3.75 1.3125 5.125 C1.3125 4.135 1.3125 3.145 1.3125 2.125 C-2.10392759 1.87484127 -2.10392759 1.87484127 -5.6875 2.125 C-6.6775 3.61 -6.6775 3.61 -7.6875 5.125 C-10.8125 5.8125 -10.8125 5.8125 -13.6875 6.125 C-9.11491041 1.3947349 -6.6581407 -0.13184437 0 0 Z " fill="#41538D" transform="translate(429.6875,315.875)"/>
<path d="M0 0 C0.66 0.33 1.32 0.66 2 1 C1.34 2.32 0.68 3.64 0 5 C-1.98 4.34 -3.96 3.68 -6 3 C-6 2.34 -6 1.68 -6 1 C-7.98 1.99 -9.96 2.98 -12 4 C-11.1875 2.0625 -11.1875 2.0625 -10 0 C-6.27762318 -1.24079227 -3.82468076 -0.6953965 0 0 Z " fill="#ECBA44" transform="translate(376,385)"/>
<path d="M0 0 C0.99 0 1.98 0 3 0 C3.33 0.99 3.66 1.98 4 3 C-1.12919186 5.10428384 -5.5610835 5.21755666 -11 5 C-11.33 4.34 -11.66 3.68 -12 3 C-10.02 3 -8.04 3 -6 3 C-6 2.34 -6 1.68 -6 1 C-4.02 1 -2.04 1 0 1 C0 0.67 0 0.34 0 0 Z " fill="#495F96" transform="translate(196,290)"/>
<path d="M0 0 C0.33 0.99 0.66 1.98 1 3 C1.99 3 2.98 3 4 3 C4.4125 3.433125 4.825 3.86625 5.25 4.3125 C7.82261344 6.79323439 10.68704954 7.68732152 14 9 C9.98287028 10.60685189 6.93957783 9.43257376 3 8 C1.0625 6.6875 1.0625 6.6875 0 5 C-0.1875 2.3125 -0.1875 2.3125 0 0 Z " fill="#435B94" transform="translate(343,354)"/>
<path d="M0 0 C4 0 4 0 5.6875 1.1875 C7.34105045 3.47097443 7.78457457 5.19946946 8 8 C7.34 8.66 6.68 9.32 6 10 C4.68 9.34 3.36 8.68 2 8 C2.33 6.68 2.66 5.36 3 4 C2.34 4 1.68 4 1 4 C0.67 2.68 0.34 1.36 0 0 Z " fill="#234897" transform="translate(99,333)"/>
<path d="M0 0 C2.475 0.99 2.475 0.99 5 2 C5 3.98 5 5.96 5 8 C3.68 8.33 2.36 8.66 1 9 C-1.125 2.25 -1.125 2.25 0 0 Z " fill="#465EA1" transform="translate(150,330)"/>
<path d="M0 0 C1.9375 0.8125 1.9375 0.8125 4 2 C4.33 2.99 4.66 3.98 5 5 C7.00016466 6.20882096 7.00016466 6.20882096 9 7 C9 7.66 9 8.32 9 9 C8.443125 8.649375 7.88625 8.29875 7.3125 7.9375 C4.46113217 6.78154007 2.91482778 7.19032562 0 8 C0.33 6.68 0.66 5.36 1 4 C0.34 3.67 -0.32 3.34 -1 3 C-0.67 2.01 -0.34 1.02 0 0 Z " fill="#37518A" transform="translate(418,134)"/>
<path d="M0 0 C2.475 0.495 2.475 0.495 5 1 C5.96070434 3.88211302 6.10581883 5.69850044 6.0625 8.6875 C6.05347656 9.49574219 6.04445313 10.30398438 6.03515625 11.13671875 C6.02355469 11.75160156 6.01195312 12.36648438 6 13 C5.01 13 4.02 13 3 13 C2.92652344 11.84371094 2.92652344 11.84371094 2.8515625 10.6640625 C2.77679688 9.66117187 2.70203125 8.65828125 2.625 7.625 C2.55539062 6.62726563 2.48578125 5.62953125 2.4140625 4.6015625 C2.23636036 1.84491121 2.23636036 1.84491121 0 0 Z " fill="#EFAD19" transform="translate(267,391)"/>
<path d="M0 0 C4 2 4 2 5.25 4.625 C5.4975 5.40875 5.745 6.1925 6 7 C5.01 7 4.02 7 3 7 C3 8.65 3 10.3 3 12 C2.01 12 1.02 12 0 12 C0 8.04 0 4.08 0 0 Z " fill="#244797" transform="translate(80,359)"/>
<path d="M0 0 C0.99 0.99 1.98 1.98 3 3 C2.34 3.66 1.68 4.32 1 5 C1 5.33 1 5.66 1 6 C1 8.66666667 1 11.33333333 1 14 C0.34 12.68 -0.32 11.36 -1 10 C-1.66 10 -2.32 10 -3 10 C-3.36923077 3.47692308 -3.36923077 3.47692308 -1.5 1.0625 C-1.005 0.711875 -0.51 0.36125 0 0 Z " fill="#31529B" transform="translate(364,357)"/>
<path d="M0 0 C0.33 0 0.66 0 1 0 C2.20443195 7.05453001 3.28100502 13.83437211 3 21 C1 20 1 20 0 18 C0 15.9907774 0.00243795 13.98098092 0.0625 11.97265625 C0.08733016 9.7852789 0.08733016 9.7852789 -1 7 C-0.72230092 4.6593935 -0.39460023 2.32375692 0 0 Z " fill="#425A99" transform="translate(200,339)"/>
<path d="M0 0 C0.33 0.66 0.66 1.32 1 2 C0.06421005 4.35981813 -0.93347808 6.69631264 -2 9 C-1.01 8.67 -0.02 8.34 1 8 C1.99 9.65 2.98 11.3 4 13 C3.01 13 2.02 13 1 13 C0.67 13.66 0.34 14.32 0 15 C-2.45622327 12.44143409 -2.99007552 11.09262844 -3.375 7.5 C-2.99007552 3.90737156 -2.45622327 2.55856591 0 0 Z " fill="#EEB63B" transform="translate(313,390)"/>
<path d="M0 0 C2.475 0.495 2.475 0.495 5 1 C5 1.99 5 2.98 5 4 C6.32 3.67 7.64 3.34 9 3 C9 4.65 9 6.3 9 8 C9.99 8.33 10.98 8.66 12 9 C11.67 9.99 11.34 10.98 11 12 C9.16364422 10.19047409 7.33083792 8.37759362 5.5 6.5625 C4.97535156 6.04623047 4.45070313 5.52996094 3.91015625 4.99804688 C2.58775448 3.68423213 1.29164432 2.34406495 0 1 C0 0.67 0 0.34 0 0 Z " fill="#344F8D" transform="translate(357,139)"/>
<path d="M0 0 C-0.99 0.66 -1.98 1.32 -3 2 C-4.33790641 2.99387334 -5.67218122 3.9926892 -7 5 C-7 4.01 -7 3.02 -7 2 C-7.66 2 -8.32 2 -9 2 C-8.34 3.98 -7.68 5.96 -7 8 C-7.99 7.67 -8.98 7.34 -10 7 C-10.125 4.125 -10.125 4.125 -10 1 C-6.54366026 -2.45633974 -4.11562231 -2.49877069 0 0 Z " fill="#EFB83A" transform="translate(165,397)"/>
<path d="M0 0 C0.99 0 1.98 0 3 0 C2.67 3.63 2.34 7.26 2 11 C1.01 10.67 0.02 10.34 -1 10 C-1 9.34 -1 8.68 -1 8 C-1.66 7.67 -2.32 7.34 -3 7 C-2.01 6.67 -1.02 6.34 0 6 C0 4.02 0 2.04 0 0 Z " fill="#F2AE21" transform="translate(425,384)"/>
<path d="M0 0 C0 1.65 0 3.3 0 5 C-1.98 5.99 -1.98 5.99 -4 7 C-4.99 6.34 -5.98 5.68 -7 5 C-5.68 4.34 -4.36 3.68 -3 3 C-3 2.67 -3 2.34 -3 2 C-5.64 1.67 -8.28 1.34 -11 1 C-11 0.67 -11 0.34 -11 0 C-6.98195309 -0.84098656 -3.98196457 -1.05404945 0 0 Z " fill="#4A5E96" transform="translate(155,367)"/>
<path d="M0 0 C0 1.65 0 3.3 0 5 C-0.99 5.33 -1.98 5.66 -3 6 C-3.66 6.66 -4.32 7.32 -5 8 C-5 6.68 -5 5.36 -5 4 C-5.66 4 -6.32 4 -7 4 C-6.67 2.68 -6.34 1.36 -6 0 C-2.25 -1.125 -2.25 -1.125 0 0 Z " fill="#26478F" transform="translate(204,362)"/>
<path d="M0 0 C0.33 0 0.66 0 1 0 C0.03644647 14.78132118 0.03644647 14.78132118 -1 21 C-3.4294516 17.3558226 -3.16179575 15.28758728 -3 11 C-2.34 11 -1.68 11 -1 11 C-1.20625 10.29875 -1.4125 9.5975 -1.625 8.875 C-2.07850357 5.39813928 -1.27540277 3.22601877 0 0 Z " fill="#425993" transform="translate(220,334)"/>
<path d="M0 0 C2.5 2 2.5 2 4 4 C3.67 4.66 3.34 5.32 3 6 C0 5 0 5 -2 2 C-2.928125 2.37125 -3.85625 2.7425 -4.8125 3.125 C-6.3903125 3.558125 -6.3903125 3.558125 -8 4 C-8.99 3.34 -9.98 2.68 -11 2 C-7.33952058 -0.44031962 -4.25894744 -0.73696072 0 0 Z " fill="#485D97" transform="translate(196,330)"/>
<path d="M0 0 C1.4540625 0.0309375 1.4540625 0.0309375 2.9375 0.0625 C2.2775 2.3725 1.6175 4.6825 0.9375 7.0625 C-0.3825 7.3925 -1.7025 7.7225 -3.0625 8.0625 C-3.44313221 5.7364143 -3.77519945 3.40194736 -4.0625 1.0625 C-3.0625 0.0625 -3.0625 0.0625 0 0 Z " fill="#29478B" transform="translate(166.0625,329.9375)"/>
<path d="M0 0 C0.6875 1.6875 0.6875 1.6875 1 4 C-0.25 6.75 -0.25 6.75 -2 9 C-2.99 9 -3.98 9 -5 9 C-4.5206753 4.68607774 -3.2542015 2.83430453 0 0 Z M-5 10 C-5 13 -5 13 -5 13 Z " fill="#F8B525" transform="translate(277,139)"/>
<path d="M0 0 C0.33 0.66 0.66 1.32 1 2 C0.3125 4 0.3125 4 -1 6 C-1.59941406 6.28617187 -2.19882813 6.57234375 -2.81640625 6.8671875 C-5.47384874 8.24582493 -7.1722009 9.97794093 -9.25 12.125 C-9.95640625 12.84945312 -10.6628125 13.57390625 -11.390625 14.3203125 C-11.92171875 14.87460938 -12.4528125 15.42890625 -13 16 C-13.66 15.67 -14.32 15.34 -15 15 C-10.05 10.05 -5.1 5.1 0 0 Z " fill="#334D86" transform="translate(132,117)"/>
<path d="M0 0 C2.475 0.99 2.475 0.99 5 2 C5 2.66 5 3.32 5 4 C5.66 4 6.32 4 7 4 C7 4.66 7 5.32 7 6 C8.32 6.66 9.64 7.32 11 8 C11 8.66 11 9.32 11 10 C11.99 10.33 12.98 10.66 14 11 C13.67 11.99 13.34 12.98 13 14 C10.83031809 11.85714108 8.66416525 9.71091768 6.5 7.5625 C5.87996094 6.95083984 5.25992187 6.33917969 4.62109375 5.70898438 C4.03457031 5.12568359 3.44804687 4.54238281 2.84375 3.94140625 C2.02680664 3.13231812 2.02680664 3.13231812 1.19335938 2.30688477 C0 1 0 1 0 0 Z " fill="#38538C" transform="translate(335,117)"/>
<path d="M0 0 C0 1.32 0 2.64 0 4 C-1.65 4 -3.3 4 -5 4 C-5 4.66 -5 5.32 -5 6 C-5.99 6 -6.98 6 -8 6 C-8.33 5.01 -8.66 4.02 -9 3 C-5.55930376 0.70620251 -4.27709699 0 0 0 Z " fill="#2E4790" transform="translate(456,315)"/>
<path d="M0 0 C0.33 0 0.66 0 1 0 C1 1.65 1 3.3 1 5 C1.66 5 2.32 5 3 5 C3.33 4.01 3.66 3.02 4 2 C4 4.97 4 7.94 4 11 C3.67 10.01 3.34 9.02 3 8 C1.02 8.99 1.02 8.99 -1 10 C-2.46726798 6.18510326 -1.43336419 3.70988378 0 0 Z " fill="#3E5DA2" transform="translate(211,263)"/>
<path d="M0 0 C1.32 0.66 2.64 1.32 4 2 C0.7 5.3 -2.6 8.6 -6 12 C-6.33 11.01 -6.66 10.02 -7 9 C-5.68 8.34 -4.36 7.68 -3 7 C-3 6.34 -3 5.68 -3 5 C-2.34 5 -1.68 5 -1 5 C-0.67 3.35 -0.34 1.7 0 0 Z " fill="#485E9B" transform="translate(427,216)"/>
<path d="M0 0 C0.99 0.99 1.98 1.98 3 3 C2.67 3.99 2.34 4.98 2 6 C3.65 6 5.3 6 7 6 C7.33 4.35 7.66 2.7 8 1 C9.4606285 3.64738916 10 4.89448334 10 8 C7.36 8 4.72 8 2 8 C0.23537317 4.91190305 0 3.76687864 0 0 Z " fill="#496596" transform="translate(107,366)"/>
<path d="M0 0 C2.39073445 3.82517513 2.55966552 7.59665524 3 12 C0.36 12 -2.28 12 -5 12 C-4.67 11.34 -4.34 10.68 -4 10 C-1.4375 9.375 -1.4375 9.375 1 9 C0.649375 7.88625 0.29875 6.7725 -0.0625 5.625 C-1 2 -1 2 0 0 Z " fill="#495C9A" transform="translate(263,362)"/>
<path d="M0 0 C0 0.66 0 1.32 0 2 C-0.66 2 -1.32 2 -2 2 C-2.33 3.32 -2.66 4.64 -3 6 C-4.65 6.33 -6.3 6.66 -8 7 C-7.6875 4.625 -7.6875 4.625 -7 2 C-4 0 -4 0 0 0 Z " fill="#405D9C" transform="translate(284,330)"/>
<path d="M0 0 C2.475 0.495 2.475 0.495 5 1 C5 1.66 5 2.32 5 3 C5.66 3 6.32 3 7 3 C8.7143618 4.95927063 10.38405168 6.95880212 12 9 C11.67 9.66 11.34 10.32 11 11 C9.72486237 9.92173635 8.45507431 8.83714481 7.1875 7.75 C6.47980469 7.14671875 5.77210938 6.5434375 5.04296875 5.921875 C3.08110329 4.07629602 1.54330375 2.20054668 0 0 Z " fill="#37538E" transform="translate(324,282)"/>
<path d="M0 0 C0.33 0.66 0.66 1.32 1 2 C-0.2739589 4.03833424 -1.61061923 6.03852126 -3 8 C-3.66 8 -4.32 8 -5 8 C-5 8.66 -5 9.32 -5 10 C-6.65 10.33 -8.3 10.66 -10 11 C-6.79239749 7.19364503 -3.59253891 3.45436433 0 0 Z " fill="#5971A6" transform="translate(364,216)"/>
<path d="M0 0 C7.32215357 -0.36010591 7.32215357 -0.36010591 10 1.0625 C11.52690415 4.02087678 11.18468872 6.73716599 11 10 C10.67 10 10.34 10 10 10 C10 8.35 10 6.7 10 5 C9.34 5 8.68 5 8 5 C7.67 4.34 7.34 3.68 7 3 C4.67843403 2.59270772 2.3431213 2.25561323 0 2 C0 1.34 0 0.68 0 0 Z " fill="#F4AF17" transform="translate(391,391)"/>
<path d="M0 0 C6.15234375 0.5859375 6.15234375 0.5859375 8 1 C8.33 1.66 8.66 2.32 9 3 C8.67 3.66 8.34 4.32 8 5 C5.36 4.67 2.72 4.34 0 4 C0 2.68 0 1.36 0 0 Z " fill="#EEB33F" transform="translate(186,389)"/>
<path d="M0 0 C0 1.32 0 2.64 0 4 C-3.375 4.625 -3.375 4.625 -7 5 C-7.66 4.34 -8.32 3.68 -9 3 C-5.92807025 0.26939578 -4.09590633 -0.34132553 0 0 Z " fill="#F0B134" transform="translate(139,389)"/>
<path d="M0 0 C-0.33 0.99 -0.66 1.98 -1 3 C-2.98 3.33 -4.96 3.66 -7 4 C-7 2.68 -7 1.36 -7 0 C-4.3333581 -1.33332095 -2.83319697 -0.67102033 0 0 Z " fill="#244996" transform="translate(351,336)"/>
<path d="M0 0 C1.98 0 3.96 0 6 0 C5.05016642 1.50539661 4.08988109 3.00420347 3.125 4.5 C2.59132812 5.3353125 2.05765625 6.170625 1.5078125 7.03125 C1.01023438 7.6809375 0.51265625 8.330625 0 9 C-0.66 9 -1.32 9 -2 9 C-1.34 6.03 -0.68 3.06 0 0 Z " fill="#3D569C" transform="translate(145,166)"/>
<path d="M0 0 C0.78375 0.185625 1.5675 0.37125 2.375 0.5625 C4.97089775 1.25962266 4.97089775 1.25962266 7 0 C7.33 1.32 7.66 2.64 8 4 C8.33 4 8.66 4 9 4 C9 5.65 9 7.3 9 9 C7.87105124 8.06725891 6.74699124 7.12859878 5.625 6.1875 C4.99851562 5.66542969 4.37203125 5.14335938 3.7265625 4.60546875 C2 3 2 3 0 0 Z " fill="#315190" transform="translate(326,108)"/>
<path d="M0 0 C1.14926266 0.95421808 2.29430541 1.91352045 3.4375 2.875 C4.07558594 3.40867187 4.71367187 3.94234375 5.37109375 4.4921875 C7 6 7 6 8 8 C6.35 8.33 4.7 8.66 3 9 C3 7.68 3 6.36 3 5 C1.68 4.67 0.36 4.34 -1 4 C-0.67 2.68 -0.34 1.36 0 0 Z " fill="#6C7FAB" transform="translate(382,97)"/>
<path d="M0 0 C0.99 0 1.98 0 3 0 C2.125 6.875 2.125 6.875 1 8 C-1.67058851 8.14115161 -4.32432238 8.04247107 -7 8 C-6.67 7.01 -6.34 6.02 -6 5 C-6 5.66 -6 6.32 -6 7 C-4.35 6.67 -2.7 6.34 -1 6 C-0.67 4.02 -0.34 2.04 0 0 Z " fill="#485B94" transform="translate(83,366)"/>
<path d="M0 0 C0.66 0 1.32 0 2 0 C1.79078357 3.66128752 0.85141649 5.47948819 -1.8125 7.875 C-5 10 -5 10 -7.375 9.8125 C-7.91125 9.544375 -8.4475 9.27625 -9 9 C-8.01 9 -7.02 9 -6 9 C-6 8.34 -6 7.68 -6 7 C-5.01 7 -4.02 7 -3 7 C-2.67 5.68 -2.34 4.36 -2 3 C-1.34 3 -0.68 3 0 3 C0 2.01 0 1.02 0 0 Z " fill="#EEB435" transform="translate(309,362)"/>
<path d="M0 0 C0.99 0.33 1.98 0.66 3 1 C2.67 4.96 2.34 8.92 2 13 C1.34 13 0.68 13 0 13 C0 8.71 0 4.42 0 0 Z " fill="#F2B215" transform="translate(260,391)"/>
<path d="M0 0 C4.62 0 9.24 0 14 0 C14 0.99 14 1.98 14 3 C13.34 3 12.68 3 12 3 C12 2.34 12 1.68 12 1 C9.69 1 7.38 1 5 1 C5 1.66 5 2.32 5 3 C3.35 3 1.7 3 0 3 C0 2.01 0 1.02 0 0 Z " fill="#EBB439" transform="translate(77,385)"/>
<path d="M0 0 C-1.9626228 2.04795423 -3.4277307 2.94976638 -6.26953125 3.19921875 C-8.51954383 3.18858877 -10.75385562 3.12958525 -13 3 C-9.54666565 -0.45333435 -4.63654999 -1.85462 0 0 Z " fill="#475E96" transform="translate(215,372)"/>
<path d="M0 0 C1.98 0.495 1.98 0.495 4 1 C3.67 3.64 3.34 6.28 3 9 C1.68 8.67 0.36 8.34 -1 8 C-1 7.01 -1 6.02 -1 5 C-0.34 5 0.32 5 1 5 C0.67 3.35 0.34 1.7 0 0 Z " fill="#224892" transform="translate(171,363)"/>
<path d="M0 0 C0.99 0.33 1.98 0.66 3 1 C0.03 3.97 -2.94 6.94 -6 10 C-7 7 -7 7 -6 4 C-4.68 4 -3.36 4 -2 4 C-2 3.34 -2 2.68 -2 2 C-1.34 2 -0.68 2 0 2 C0 1.34 0 0.68 0 0 Z " fill="#465E98" transform="translate(367,278)"/>
<path d="M0 0 C1.17539996 0.92652701 2.34010577 1.86663387 3.5 2.8125 C4.1496875 3.33457031 4.799375 3.85664063 5.46875 4.39453125 C7 6 7 6 7 9 C5.68 8.67 4.36 8.34 3 8 C3 7.34 3 6.68 3 6 C2.34 5.67 1.68 5.34 1 5 C0.375 2.4375 0.375 2.4375 0 0 Z " fill="#385494" transform="translate(183,230)"/>
<path d="M0 0 C0.66 0 1.32 0 2 0 C0.4169423 4.2742558 -2.50568404 6.26531794 -6 9 C-6.33 7.35 -6.66 5.7 -7 4 C-5.35 4 -3.7 4 -2 4 C-1.34 2.68 -0.68 1.36 0 0 Z " fill="#415C9C" transform="translate(447,198)"/>
<path d="M0 0 C0.33 0 0.66 0 1 0 C1.25034126 2.0600371 1.47443346 4.12327466 1.6875 6.1875 C1.81511719 7.33605469 1.94273437 8.48460937 2.07421875 9.66796875 C1.99103334 13.40255594 1.30256035 15.09582055 -1 18 C-1.66 18 -2.32 18 -3 18 C-2.690625 17.2575 -2.38125 16.515 -2.0625 15.75 C-0.59001036 10.55297775 -0.33050945 5.37512737 0 0 Z " fill="#3A558C" transform="translate(391,175)"/>
<path d="M0 0 C0 3.70411834 -0.75301769 5.078923 -3 8 C-6.1875 9.3125 -6.1875 9.3125 -9 10 C-8.06409496 8.8944811 -7.12620142 7.79064547 -6.1875 6.6875 C-5.66542969 6.07261719 -5.14335937 5.45773438 -4.60546875 4.82421875 C-3.12827531 3.14575321 -1.59960869 1.56117966 0 0 Z " fill="#F3BB45" transform="translate(258,158)"/>
<path d="M0 0 C3.3 0.33 6.6 0.66 10 1 C10 1.33 10 1.66 10 2 C9.07767578 2.16435547 9.07767578 2.16435547 8.13671875 2.33203125 C7.32847656 2.49058594 6.52023438 2.64914062 5.6875 2.8125 C4.48673828 3.03873047 4.48673828 3.03873047 3.26171875 3.26953125 C0.76554413 4.07572236 -0.32422106 5.02052002 -2 7 C-2.99 6.01 -3.98 5.02 -5 4 C-3.68 4 -2.36 4 -1 4 C-0.67 2.68 -0.34 1.36 0 0 Z " fill="#3B5898" transform="translate(135,335)"/>
<path d="M0 0 C2.64 0 5.28 0 8 0 C8.33 1.98 8.66 3.96 9 6 C6.03 5.505 6.03 5.505 3 5 C3.33 3.68 3.66 2.36 4 1 C2.68 0.67 1.36 0.34 0 0 Z " fill="#37579A" transform="translate(139,329)"/>
<path d="M0 0 C0.99 0 1.98 0 3 0 C3 5.94 3 11.88 3 18 C1.68 17.67 0.36 17.34 -1 17 C-0.01 17 0.98 17 2 17 C1.85899143 14.72886197 1.71203245 12.45809275 1.5625 10.1875 C1.48128906 8.92292969 1.40007812 7.65835937 1.31640625 6.35546875 C1.12815453 3.00818107 1.12815453 3.00818107 0 0 Z " fill="#2B4689" transform="translate(437,345)"/>
<path d="M0 0 C-0.54723683 3.37462715 -1.0549 5.08235 -3 8 C-3.99 7.67 -4.98 7.34 -6 7 C-5.6875 4.625 -5.6875 4.625 -5 2 C-2 0 -2 0 0 0 Z " fill="#415D9B" transform="translate(457,187)"/>
<path d="M0 0 C0.99 0.495 0.99 0.495 2 1 C2 1.66 2 2.32 2 3 C2.639375 3.268125 3.27875 3.53625 3.9375 3.8125 C6 5 6 5 7 8 C7.66 8.33 8.32 8.66 9 9 C8.01 9.33 7.02 9.66 6 10 C0.42857143 3.71428571 0.42857143 3.71428571 0 0 Z " fill="#6B7DAB" transform="translate(407,122)"/>
<path d="M0 0 C0.33 0 0.66 0 1 0 C1 2.97 1 5.94 1 9 C-0.98 9.66 -2.96 10.32 -5 11 C-5.33 10.01 -5.66 9.02 -6 8 C-5.195625 7.79375 -4.39125 7.5875 -3.5625 7.375 C-2.716875 6.92125 -1.87125 6.4675 -1 6 C-0.10169161 2.94727535 -0.10169161 2.94727535 0 0 Z " fill="#EEAF34" transform="translate(113,395)"/>
<path d="M0 0 C-1.2375 0.7425 -1.2375 0.7425 -2.5 1.5 C-5.15002759 3.66272692 -5.15002759 3.66272692 -5.33203125 6.046875 C-5.31441262 8.03425598 -5.16504949 10.01940609 -5 12 C-7 10 -7 10 -7.1953125 7.8359375 C-7.17210938 7.02382813 -7.14890625 6.21171875 -7.125 5.375 C-7.10695313 4.55773437 -7.08890625 3.74046875 -7.0703125 2.8984375 C-7.04710938 2.27195312 -7.02390625 1.64546875 -7 1 C-4.53721199 -0.231394 -2.7204945 -0.07159196 0 0 Z " fill="#F7AF13" transform="translate(111,391)"/>
<path d="M0 0 C2.5 2.3125 2.5 2.3125 5 5 C5 5.99 5 6.98 5 8 C5.99 8.33 6.98 8.66 8 9 C7.01 9.495 7.01 9.495 6 10 C0.24739583 5.59375 0.24739583 5.59375 -0.9375 2.75 C-0.958125 2.1725 -0.97875 1.595 -1 1 C-0.67 0.67 -0.34 0.34 0 0 Z " fill="#4F6AA1" transform="translate(126,364)"/>
<path d="M0 0 C5.28 0 10.56 0 16 0 C15.67 0.66 15.34 1.32 15 2 C11.66230383 3.11256539 11.22743866 2.80685967 8 2 C5.66699067 1.96111651 3.33290199 1.9551365 1 2 C0.67 1.34 0.34 0.68 0 0 Z " fill="#254483" transform="translate(238,355)"/>
<path d="M0 0 C0.99 0.66 1.98 1.32 3 2 C3.29296875 4.3828125 3.29296875 4.3828125 3.1875 7.125 C3.16042969 8.03507812 3.13335937 8.94515625 3.10546875 9.8828125 C3.07066406 10.58148438 3.03585938 11.28015625 3 12 C2.67 12 2.34 12 2 12 C1.566875 10.2984375 1.566875 10.2984375 1.125 8.5625 C0.75375 7.386875 0.3825 6.21125 0 5 C-0.66 4.67 -1.32 4.34 -2 4 C-1.34 2.68 -0.68 1.36 0 0 Z " fill="#254791" transform="translate(197,334)"/>
<path d="M0 0 C0.66 0 1.32 0 2 0 C0.61811547 3.21043882 -0.92421903 5.04936365 -3.625 7.25 C-4.57246094 8.03117188 -4.57246094 8.03117188 -5.5390625 8.828125 C-6.02117187 9.21484375 -6.50328125 9.6015625 -7 10 C-6.6875 8.0625 -6.6875 8.0625 -6 6 C-5.01 5.67 -4.02 5.34 -3 5 C-1.8499169 3.03327085 -1.8499169 3.03327085 -1 1 C-0.67 0.67 -0.34 0.34 0 0 Z " fill="#495F9A" transform="translate(438,207)"/>
<path d="M0 0 C0.33 0 0.66 0 1 0 C1 1.98 1 3.96 1 6 C-1.64 6.66 -4.28 7.32 -7 8 C-6.02133662 6.85373678 -5.04205413 5.70800212 -4.0625 4.5625 C-3.51722656 3.92441406 -2.97195312 3.28632812 -2.41015625 2.62890625 C-1.63204305 1.73008851 -0.84063472 0.84063472 0 0 Z " fill="#314E8E" transform="translate(170,79)"/>
<path d="M0 0 C0.66 0.33 1.32 0.66 2 1 C1.67 1.99 1.34 2.98 1 4 C-1.31 4.33 -3.62 4.66 -6 5 C-6.33 4.34 -6.66 3.68 -7 3 C-4.69631264 1.93347808 -2.35981813 0.93578995 0 0 Z " fill="#F2B82E" transform="translate(141,401)"/>
<path d="M0 0 C1.5625 1.8125 1.5625 1.8125 3 4 C2.67 4.99 2.34 5.98 2 7 C2.66 7.66 3.32 8.32 4 9 C2.68 9.33 1.36 9.66 0 10 C0 9.34 0 8.68 0 8 C-0.66 8 -1.32 8 -2 8 C-1.34 5.36 -0.68 2.72 0 0 Z " fill="#3658A0" transform="translate(356,368)"/>
<path d="M0 0 C0.99 0.33 1.98 0.66 3 1 C0.36 3.64 -2.28 6.28 -5 9 C-5.33 8.01 -5.66 7.02 -6 6 C-5.34 6 -4.68 6 -4 6 C-3.71125 5.195625 -3.4225 4.39125 -3.125 3.5625 C-2 1 -2 1 0 0 Z " fill="#495F98" transform="translate(412,233)"/>
<path d="M0 0 C4.6875 3.61328125 4.6875 3.61328125 6 5 C6 5.99 6 6.98 6 8 C5.01 8 4.02 8 3 8 C3 7.34 3 6.68 3 6 C1.68 5.67 0.36 5.34 -1 5 C-0.34 4.67 0.32 4.34 1 4 C0.67 2.68 0.34 1.36 0 0 Z " fill="#485E98" transform="translate(443,158)"/>
<path d="M0 0 C0.66 0 1.32 0 2 0 C2 0.66 2 1.32 2 2 C2.66 2.33 3.32 2.66 4 3 C4.625 5.5625 4.625 5.5625 5 8 C4.01 8.66 3.02 9.32 2 10 C1.34 6.7 0.68 3.4 0 0 Z " fill="#3A5392" transform="translate(255,362)"/>
<path d="M0 0 C-3.6441774 2.4294516 -5.71241272 2.16179575 -10 2 C-10 1.34 -10 0.68 -10 0 C-6.30581799 -1.231394 -3.7943739 -0.64432764 0 0 Z " fill="#324989" transform="translate(101,330)"/>
<path d="M0 0 C0.33 0.99 0.66 1.98 1 3 C0 5 0 5 -1.84765625 5.6328125 C-2.94400391 5.87644531 -2.94400391 5.87644531 -4.0625 6.125 C-4.79597656 6.29257812 -5.52945312 6.46015625 -6.28515625 6.6328125 C-6.85105469 6.75398438 -7.41695313 6.87515625 -8 7 C-5.42215154 4.35247996 -3.08351902 2.05567935 0 0 Z " fill="#4D6498" transform="translate(415,322)"/>
<path d="M0 0 C-1.49097658 3.7952131 -3.75700849 5.61042731 -7 8 C-6.44414399 4.1090079 -4.34122117 0 0 0 Z " fill="#4B639A" transform="translate(209,283)"/>
<path d="M0 0 C1 2 1 2 0.375 3.9375 C-1.3792518 6.5688777 -3.16320216 7.65252103 -6 9 C-6.66 8.67 -7.32 8.34 -8 8 C-5.36 5.36 -2.72 2.72 0 0 Z " fill="#F4BB4C" transform="translate(229,187)"/>
<path d="M0 0 C2.31 0 4.62 0 7 0 C7 0.66 7 1.32 7 2 C6.01 2 5.02 2 4 2 C3.67 2.99 3.34 3.98 3 5 C1.5 3.625 1.5 3.625 0 2 C0 1.34 0 0.68 0 0 Z " fill="#F7B10E" transform="translate(82,386)"/>
<path d="M0 0 C0.33 0 0.66 0 1 0 C1 3.63 1 7.26 1 11 C0.01 11.33 -0.98 11.66 -2 12 C-1 3.42857143 -1 3.42857143 0 0 Z " fill="#4D639B" transform="translate(228,362)"/>
<path d="M0 0 C1.88391785 3.26545761 2.49287967 6.28111761 3 10 C2.01 10 1.02 10 0 10 C-1.231394 6.30581799 -0.64432764 3.7943739 0 0 Z " fill="#41609A" transform="translate(111,353)"/>
<path d="M0 0 C2.12046792 3.53411321 2.53199289 6.94393835 3 11 C2.34 11 1.68 11 1 11 C1 9.68 1 8.36 1 7 C-0.32 6.34 -1.64 5.68 -3 5 C-2.01 5 -1.02 5 0 5 C0 3.35 0 1.7 0 0 Z " fill="#4D679B" transform="translate(260,351)"/>
<path d="M0 0 C1.0625 1.875 1.0625 1.875 2 4 C1.67 4.66 1.34 5.32 1 6 C-0.65 6 -2.3 6 -4 6 C-4 5.01 -4 4.02 -4 3 C-3.34 3 -2.68 3 -2 3 C-2 2.34 -2 1.68 -2 1 C-1.34 0.67 -0.68 0.34 0 0 Z " fill="#3B58A0" transform="translate(109,346)"/>
<path d="M0 0 C4.41889613 1.35021826 6.34345343 3.26115668 9 7 C6 7 6 7 4.39453125 5.46875 C3.87246094 4.8190625 3.35039062 4.169375 2.8125 3.5 C2.28269531 2.8503125 1.75289063 2.200625 1.20703125 1.53125 C0.80871094 1.0259375 0.41039062 0.520625 0 0 Z " fill="#38508B" transform="translate(349,131)"/>
<path d="M0 0 C2.02054804 1.64169528 4.02043058 3.30911778 6 5 C6 5.33 6 5.66 6 6 C4.35 6 2.7 6 1 6 C1 5.01 1 4.02 1 3 C0.01 3 -0.98 3 -2 3 C-1 1 -1 1 0 0 Z " fill="#495E95" transform="translate(368,83)"/>
<path d="M0 0 C0.33 0 0.66 0 1 0 C1.32613618 4.67461851 0.70582788 7.16674383 -2 11 C-2.66 10.67 -3.32 10.34 -4 10 C-4 9.34 -4 8.68 -4 8 C-3.34 8 -2.68 8 -2 8 C-1.7834375 7.13375 -1.7834375 7.13375 -1.5625 6.25 C-1.04166667 4.16666667 -0.52083333 2.08333333 0 0 Z " fill="#6477A1" transform="translate(186,363)"/>
<path d="M0 0 C0.99 0 1.98 0 3 0 C3.33 0.99 3.66 1.98 4 3 C0.30458414 3.95024979 -2.30458414 3.95024979 -6 3 C-6 2.34 -6 1.68 -6 1 C-4.02 1 -2.04 1 0 1 C0 0.67 0 0.34 0 0 Z " fill="#3A5995" transform="translate(196,290)"/>
<path d="M0 0 C0.33 0.99 0.66 1.98 1 3 C0.34 3.66 -0.32 4.32 -1 5 C-1.99 5 -2.98 5 -4 5 C-4 4.34 -4 3.68 -4 3 C-4.66 2.67 -5.32 2.34 -6 2 C-2.25 0 -2.25 0 0 0 Z " fill="#3C599B" transform="translate(339,69)"/>
<path d="M0 0 C0.66 0.33 1.32 0.66 2 1 C1.67 2.65 1.34 4.3 1 6 C-0.32 6.33 -1.64 6.66 -3 7 C-3 5.35 -3 3.7 -3 2 C-2.67 2.66 -2.34 3.32 -2 4 C-1.34 4 -0.68 4 0 4 C0 2.68 0 1.36 0 0 Z " fill="#ECB746" transform="translate(194,398)"/>
<path d="M0 0 C0.99 0 1.98 0 3 0 C3 0.66 3 1.32 3 2 C3.66 2 4.32 2 5 2 C5 4.97 5 7.94 5 11 C4.67 11 4.34 11 4 11 C4 8.36 4 5.72 4 3 C2.68 3 1.36 3 0 3 C0 2.01 0 1.02 0 0 Z " fill="#F0BA4F" transform="translate(284,390)"/>
<path d="M0 0 C2.475 0.495 2.475 0.495 5 1 C5 3.64 5 6.28 5 9 C2.6120592 6.6120592 2.64618276 5.23091381 2 2 C1.34 1.34 0.68 0.68 0 0 Z " fill="#F8AF13" transform="translate(267,391)"/>
<path d="M0 0 C0.33 1.32 0.66 2.64 1 4 C-0.32 4.33 -1.64 4.66 -3 5 C-3.66 3.68 -4.32 2.36 -5 1 C-3.35 0.67 -1.7 0.34 0 0 Z " fill="#1F4897" transform="translate(182,367)"/>
<path d="M0 0 C-0.66 2.31 -1.32 4.62 -2 7 C-2.99 7 -3.98 7 -5 7 C-5.6875 5.1875 -5.6875 5.1875 -6 3 C-4.04862098 0.26806937 -3.44686768 0 0 0 Z " fill="#3E649A" transform="translate(193,336)"/>
<path d="M0 0 C0.66 0.66 1.32 1.32 2 2 C1.8125 4.0625 1.8125 4.0625 1 6 C0.01 6.33 -0.98 6.66 -2 7 C-2 5.02 -2 3.04 -2 1 C-1.34 0.67 -0.68 0.34 0 0 Z " fill="#204996" transform="translate(217,333)"/>
<path d="M0 0 C1.32 0 2.64 0 4 0 C5.8125 1.8125 5.8125 1.8125 7 4 C6.67 4.99 6.34 5.98 6 7 C4.02 4.69 2.04 2.38 0 0 Z " fill="#2D4B8A" transform="translate(145,258)"/>
<path d="M0 0 C0.66 0.66 1.32 1.32 2 2 C1.67 2.66 1.34 3.32 1 4 C1.66 4 2.32 4 3 4 C3.33 5.32 3.66 6.64 4 8 C1.69 6.02 -0.62 4.04 -3 2 C-2.01 1.34 -1.02 0.68 0 0 Z " fill="#2D4C8B" transform="translate(140,249)"/>
<path d="M0 0 C1.98 0.66 3.96 1.32 6 2 C6.33 3.65 6.66 5.3 7 7 C5.83040013 6.02433888 4.66438823 5.044375 3.5 4.0625 C2.8503125 3.51722656 2.200625 2.97195312 1.53125 2.41015625 C1.0259375 1.94480469 0.520625 1.47945312 0 1 C0 0.67 0 0.34 0 0 Z " fill="#2F4D8B" transform="translate(89,202)"/>
<path d="M0 0 C1 2 1 2 0.4375 4 C-1.57302108 6.79724672 -3.74418077 7.15065585 -7 8 C-6.02133662 6.85373678 -5.04205413 5.70800212 -4.0625 4.5625 C-3.51722656 3.92441406 -2.97195312 3.28632813 -2.41015625 2.62890625 C-1.63204305 1.73008851 -0.84063472 0.84063472 0 0 Z " fill="#F7BA4F" transform="translate(237,179)"/>
<path d="M0 0 C0.99 0 1.98 0 3 0 C3 2 3 2 0.625 4.625 C-2 7 -2 7 -4 7 C-2.92598892 4.08482708 -2.22189824 2.22189824 0 0 Z " fill="#385098" transform="translate(193,120)"/>
<path d="M0 0 C0.99 0.33 1.98 0.66 3 1 C3.33 2.98 3.66 4.96 4 7 C3.01 7.495 3.01 7.495 2 8 C1.01 5.69 0.02 3.38 -1 1 C-0.67 0.67 -0.34 0.34 0 0 Z " fill="#3A5490" transform="translate(321,98)"/>
<path d="M0 0 C2.31 1.98 4.62 3.96 7 6 C6.01 6.33 5.02 6.66 4 7 C1 5 1 5 0.3125 2.375 C0.209375 1.59125 0.10625 0.8075 0 0 Z " fill="#4A5E86" transform="translate(361,76)"/>
<path d="M0 0 C1.2065625 0.0309375 1.2065625 0.0309375 2.4375 0.0625 C1.7775 1.7125 1.1175 3.3625 0.4375 5.0625 C-0.2225 5.0625 -0.8825 5.0625 -1.5625 5.0625 C-1.5625 4.0725 -1.5625 3.0825 -1.5625 2.0625 C-2.2225 1.7325 -2.8825 1.4025 -3.5625 1.0625 C-2.5625 0.0625 -2.5625 0.0625 0 0 Z " fill="#244995" transform="translate(353.5625,370.9375)"/>
<path d="M0 0 C0.66 0.66 1.32 1.32 2 2 C0.71937515 3.7074998 -0.61767557 5.37373596 -2 7 C-2.66 7 -3.32 7 -4 7 C-3.67 5.35 -3.34 3.7 -3 2 C-2.01 2 -1.02 2 0 2 C0 1.34 0 0.68 0 0 Z " fill="#38569D" transform="translate(135,365)"/>
<path d="M0 0 C1.65 1.65 3.3 3.3 5 5 C4.67 5.66 4.34 6.32 4 7 C3.01 6.67 2.02 6.34 1 6 C0.67 4.02 0.34 2.04 0 0 Z " fill="#EFB132" transform="translate(306,334)"/>
<path d="M0 0 C0.66 0.33 1.32 0.66 2 1 C0.875 2.9375 0.875 2.9375 -1 5 C-4.1875 5.75 -4.1875 5.75 -7 6 C-4.74259377 3.66475218 -2.7194239 1.81294927 0 0 Z " fill="#50679B" transform="translate(423,316)"/>
<path d="M0 0 C0.598125 0.350625 1.19625 0.70125 1.8125 1.0625 C1.1525 1.0625 0.4925 1.0625 -0.1875 1.0625 C-0.5175 2.3825 -0.8475 3.7025 -1.1875 5.0625 C-2.5075 3.4125 -3.8275 1.7625 -5.1875 0.0625 C-2.1875 -0.9375 -2.1875 -0.9375 0 0 Z " fill="#2B4D90" transform="translate(166.1875,273.9375)"/>
<path d="M0 0 C0.99 0.33 1.98 0.66 3 1 C2.01 2.32 1.02 3.64 0 5 C-1.32 4.67 -2.64 4.34 -4 4 C-2.68 2.68 -1.36 1.36 0 0 Z " fill="#4F69A1" transform="translate(344,236)"/>
<path d="M0 0 C0.66 0.99 1.32 1.98 2 3 C1.01 3.33 0.02 3.66 -1 4 C-1 4.66 -1 5.32 -1 6 C-2.32 5.67 -3.64 5.34 -5 5 C-3.35 3.35 -1.7 1.7 0 0 Z " fill="#F5B83E" transform="translate(213,203)"/>
<path d="M0 0 C0.33 0 0.66 0 1 0 C1 2.64 1 5.28 1 8 C0.01 7.67 -0.98 7.34 -2 7 C-1.125 2.25 -1.125 2.25 0 0 Z " fill="#F7B614" transform="translate(185,389)"/>
<path d="M0 0 C1.32 0 2.64 0 4 0 C4 1.65 4 3.3 4 5 C3.01 4.67 2.02 4.34 1 4 C1 3.34 1 2.68 1 2 C0.34 1.67 -0.32 1.34 -1 1 C-0.67 0.67 -0.34 0.34 0 0 Z " fill="#F8AD0D" transform="translate(423,390)"/>
<path d="M0 0 C1.32 0.33 2.64 0.66 4 1 C2.515 4.96 2.515 4.96 1 9 C0.67 9 0.34 9 0 9 C0 6.03 0 3.06 0 0 Z " fill="#F3BB50" transform="translate(262,390)"/>
<path d="M0 0 C0.99 0 1.98 0 3 0 C2.67 3.3 2.34 6.6 2 10 C-0.4294516 6.3558226 -0.16179575 4.28758728 0 0 Z " fill="#4B6BA0" transform="translate(217,345)"/>
<path d="M0 0 C0.99 0 1.98 0 3 0 C3 1.65 3 3.3 3 5 C2.01 5.33 1.02 5.66 0 6 C0 4.02 0 2.04 0 0 Z " fill="#29488D" transform="translate(433,349)"/>
<path d="M0 0 C2 2 2 2 2.125 5.625 C2.08375 6.73875 2.0425 7.8525 2 9 C0.4375 7.875 0.4375 7.875 -1 6 C-0.6875 2.8125 -0.6875 2.8125 0 0 Z " fill="#345294" transform="translate(188,340)"/>
<path d="M0 0 C0 1.32 0 2.64 0 4 C-2.31 3.34 -4.62 2.68 -7 2 C-4 0 -4 0 0 0 Z " fill="#5A72A2" transform="translate(456,315)"/>
<path d="M0 0 C0.66 0.99 1.32 1.98 2 3 C0.02 4.32 -1.96 5.64 -4 7 C-4.66 6.67 -5.32 6.34 -6 6 C-4.02 4.02 -2.04 2.04 0 0 Z " fill="#375187" transform="translate(387,193)"/>
</svg>
