<svg id="Layer_1" data-name="Layer 1" xmlns="http://www.w3.org/2000/svg" xmlns:xlink="http://www.w3.org/1999/xlink" viewBox="0 0 565.748 137.866"><defs><style>.cls-1{fill:url(#linear-gradient);}</style><linearGradient id="linear-gradient" x1="36.771" y1="374.293" x2="161.93" y2="249.137" gradientTransform="matrix(1, 0, 0, -1, 0, 642)" gradientUnits="userSpaceOnUse"><stop offset="0" stop-color="#FDCA02"/><stop offset="0.05" stop-color="#FDCA02"/><stop offset="0.26" stop-color="#FDCA02"/><stop offset="0.49" stop-color="#FDCA02"/><stop offset="0.73" stop-color="#FDCA02"/><stop offset="1" stop-color="#f18f34"/></linearGradient></defs><g id="Layer_2" data-name="Layer 2"><g id="Layer_1-2" data-name="Layer 1-2"><path class="cls-1" d="M146.491,329.569a18.182,18.182,0,0,1,1.319,4.108l5.3,27.344,2.37,12.211h.022v.148l.168,2.692a10.039,10.039,0,0,1-4.646,9.294,6.391,6.391,0,0,1-4.226,1.058l-2.569-.4L131.6,384.065,101,379.324a7.332,7.332,0,0,1-6.153-8.028l.045-.383A6.746,6.746,0,0,1,102.377,365c.11.013.219.029.329.047l25.657,3.98,8.745,1.358a2.9,2.9,0,0,0,3.306-3.508l-1.731-8.125-3.9-22.138c-.719-3.349-4.978-6.185-8.3-5.588a5.872,5.872,0,0,0-3.124,1.623,5.992,5.992,0,0,0-1.593,5.525l3.829,17.857a.5.5,0,0,1-.564.6L104.2,353.4a18.4,18.4,0,0,0-21.313,15.992,21.831,21.831,0,0,0,5.8,17.24c2.905,2.905,5.519,4.67,9.835,5.338l42.716,6.745c31.013,3.632,26.416-28.661,26.416-28.661l-6.454-35.126a39.391,39.391,0,0,0-9.685-19.645c-7.686-8.334-20.746-15.152-39.949-1.871-34.725,24.009-49.7,37.775-59.458,18.191a18.1,18.1,0,0,1-1.638-5.172l-4.446-27.313-2.37-12.208h-.02v-.149l-.168-2.691a10.036,10.036,0,0,1,4.638-9.3,6.409,6.409,0,0,1,4.226-1.056l2.571.4,12.63,1.957,30.6,4.741a7.33,7.33,0,0,1,6.15,8.029l-.043.382a6.744,6.744,0,0,1-7.487,5.91c-.11-.013-.22-.028-.329-.047l-25.664-3.971-8.745-1.358a2.9,2.9,0,0,0-3.3,3.508l1.741,8.123,3.9,22.136c.717,3.348,4.976,6.184,8.3,5.585a5.876,5.876,0,0,0,3.127-1.622,5.991,5.991,0,0,0,1.59-5.524l-3.829-17.858a.5.5,0,0,1,.381-.592.49.49,0,0,1,.183,0l20.826,3.233a18.4,18.4,0,0,0,21.311-15.993,21.829,21.829,0,0,0-5.8-17.24c-2.9-2.911-5.506-4.676-9.835-5.346L57.9,261.418c-31.015-3.631-26.416,28.661-26.416,28.661l7.586,41.307s.562,6.465,7.307,13.77c7.049,7.636,23.662,14.157,41.591.059,28.6-22.449,44.167-32.362,54.3-22.333a17.2,17.2,0,0,1,3.478,5.073Z" transform="translate(-31.24 -261.133)"/></g></g><path d="M179.734,316.869h10.322c.483,8.3,8.586,11.19,13.795,11.286,5.981,0,12.444-2.412,12.637-9.164.193-6.656-4.823-9.261-14.374-10.8-13.891-1.833-23.248-7.524-23.248-18.908,0-11.093,10.225-17.846,22.38-17.846,12.444,0,23.731,7.235,24.117,19.872H214.944c-.482-7.91-7.138-11-13.7-11-5.981,0-11.479,3.28-11.576,9.164,0,5.21,4.245,8.393,13.6,9.84,15.917,2.412,24.406,8.3,24.02,20.547s-11.865,17.46-23.827,17.171C191.117,336.837,180.216,329.6,179.734,316.869Z" transform="translate(-31.24 -261.133)"/><path d="M233.658,311.853c-.1-15.725,11.768-25.661,27.01-25.661,15.435,0,27.3,9.936,27.2,25.661-.1,14.663-11.48,25.177-27.2,25.177C245.909,337.03,233.754,326.708,233.658,311.853Zm26.914,15.82a15.572,15.572,0,0,0,15.916-15.917c0-9.55-6.945-16.206-15.916-16.206-8.586,0-15.628,6.367-15.628,16.206A15.628,15.628,0,0,0,260.572,327.673Z" transform="translate(-31.24 -261.133)"/><path d="M300.893,305.293h-8.2v-9.357h8.2V290.63c0-17.171,17.267-22.38,29.615-17.171l-1.929,9.646c-7.91-3.279-16.4-1.061-16.4,7.911v4.92h14.18v9.357H312.276l-.1,30.772H300.893Z" transform="translate(-31.24 -261.133)"/><path d="M340.153,317.447V296.514h-7.716v-9.839c8.778-.1,7.716-5.209,7.716-14.277h11.286l.1,14.277H365.62v9.839H351.439v19.679c0,8.875,8.007,12.155,15.917,8.779l1.93,9.743C356.938,339.924,340.153,334.715,340.153,317.447Z" transform="translate(-31.24 -261.133)"/><path d="M372.661,287.157h11.286l10.805,34.921,10.9-34.921h10.033l11.19,34.921,11.769-34.921h11.287l-16.014,48.908h-11l-12.251-33.473-12.155,33.473H387.806Z" transform="translate(-31.24 -261.133)"/><path d="M450.507,311.853c0-16.207,10.321-25.757,23.827-25.661,8.585,0,16.978,4.727,19.775,12.83V287.157H505.4v48.908H494.109V324.007c-2.6,7.718-10.8,13.023-19.2,13.023C460.828,337.127,450.507,325.937,450.507,311.853Zm27.2,15.723a15.846,15.846,0,0,0,15.917-15.82c0-10.129-7.428-16.11-15.917-16.206-8.682-.1-15.917,5.595-15.917,16.206A15.545,15.545,0,0,0,477.71,327.576Z" transform="translate(-31.24 -261.133)"/><path d="M511.762,287.157h11.286V300.18c2.7-10.129,14.855-15.338,24.7-11.672l-5.788,9.357c-7.234-3.183-18.425,2.894-18.425,13.891v24.309H511.762Z" transform="translate(-31.24 -261.133)"/><path d="M545.331,311.756c0-16.689,12.348-25.564,26.046-25.564,13.312,0,24.116,8.49,25.467,23.538a17.069,17.069,0,0,1,0,4.437l-40.806.1c.869,8.007,8.1,13.409,15.242,13.409,5.692.1,11.094-2.411,13.891-7.332l8.489,4.342c-4.341,7.716-12.733,12.347-22.283,12.347C557.679,337.03,545.331,326.9,545.331,311.756Zm40.9-4.051a14.764,14.764,0,0,0-14.855-12.348A14.491,14.491,0,0,0,556.811,307.8Z" transform="translate(-31.24 -261.133)"/><path d="M189.109,380.343H193.8c.216,5.071,5.341,6.743,8.415,6.743,3.668,0,7.713-1.457,7.821-5.664.162-4.1-2.7-5.879-8.738-6.9-7.767-1.133-12.676-4.261-12.676-10.3s5.394-9.763,12.137-9.763c6.8,0,12.891,3.938,13.053,10.735H209.12c-.215-4.748-4.476-6.689-8.36-6.689-3.668,0-7.228,2-7.228,5.825-.054,3.183,2.589,5.233,8.253,6.15,8.846,1.4,13.377,4.692,13.161,11.273-.27,6.742-6.419,9.493-12.892,9.385C195.2,391.023,189.378,387.247,189.109,380.343Z" transform="translate(-31.24 -261.133)"/><path d="M235.119,372.953a18.193,18.193,0,0,1,18.5-18.5c10.41,0,18.285,7.821,18.232,18.5a17.876,17.876,0,0,1-18.286,18.178C243.48,391.131,235.065,383.58,235.119,372.953Zm18.448,13.7c7.227,0,13.107-5.825,13.161-13.7.054-8.414-5.934-14.024-13.053-14.024s-13.431,5.664-13.431,14.024A13.505,13.505,0,0,0,253.567,386.654Z" transform="translate(-31.24 -261.133)"/><path d="M292.025,354.991H297.1v31.124h18.555v4.477H292.025Z" transform="translate(-31.24 -261.133)"/><path d="M333.721,377.161v-22.17h5.07v21.792c0,5.718,3.183,9.871,9.277,9.871,5.988,0,9.117-4.153,9.117-9.871V354.991h5.07v22.17c0,8.307-5.556,13.97-14.24,13.97C339.276,391.131,333.721,385.575,333.721,377.161Z" transform="translate(-31.24 -261.133)"/><path d="M393.809,359.469l-11.381-.054v-4.424h27.886v4.424l-11.435.054-.108,31.123H393.7Z" transform="translate(-31.24 -261.133)"/><path d="M430.488,354.991h4.855v35.6h-4.855Z" transform="translate(-31.24 -261.133)"/><path d="M455.516,372.953a18.192,18.192,0,0,1,18.5-18.5c10.41,0,18.286,7.821,18.231,18.5a17.875,17.875,0,0,1-18.285,18.178C463.876,391.131,455.461,383.58,455.516,372.953Zm18.447,13.7c7.227,0,13.107-5.825,13.161-13.7.054-8.414-5.934-14.024-13.054-14.024s-13.43,5.664-13.43,14.024A13.505,13.505,0,0,0,473.963,386.654Z" transform="translate(-31.24 -261.133)"/><path d="M512.422,354.991h4.692l18.448,27.186V354.991h5.124v35.6H536.1l-18.61-27.024v27.024h-5.07Z" transform="translate(-31.24 -261.133)"/><path d="M561.345,380.343h4.692c.216,5.071,5.34,6.743,8.415,6.743,3.668,0,7.713-1.457,7.821-5.664.162-4.1-2.7-5.879-8.738-6.9-7.767-1.133-12.676-4.261-12.676-10.3s5.394-9.763,12.136-9.763c6.8,0,12.892,3.938,13.054,10.735h-4.693c-.215-4.748-4.477-6.689-8.361-6.689-3.668,0-7.227,2-7.227,5.825-.054,3.183,2.588,5.233,8.253,6.15,8.845,1.4,13.376,4.692,13.161,11.273-.27,6.742-6.419,9.493-12.892,9.385C567.439,391.023,561.614,387.247,561.345,380.343Z" transform="translate(-31.24 -261.133)"/></svg>